<svg width="32" height="32" viewBox="0 0 32 32" fill="none" xmlns="http://www.w3.org/2000/svg">
<path d="M20.5655 20.5349C20.5686 21.0811 20.4571 21.6224 20.2375 22.1278C20.018 22.6333 19.6946 23.0928 19.2861 23.48C18.8776 23.8673 18.3919 24.1745 17.857 24.3842C17.3221 24.5939 16.7486 24.7018 16.1692 24.7018C15.59 24.7018 15.0164 24.5939 14.4815 24.3842C13.9466 24.1745 13.4609 23.8673 13.0524 23.48C12.6439 23.0928 12.3205 22.6333 12.101 22.1278C11.8814 21.6224 11.7699 21.0811 11.773 20.5349C11.7699 19.9887 11.8814 19.4473 12.101 18.9419C12.3205 18.4365 12.6439 17.977 13.0524 17.5897C13.4609 17.2025 13.9466 16.8953 14.4815 16.6856C15.0164 16.4759 15.59 16.3679 16.1692 16.3679C16.7486 16.3679 17.3221 16.4759 17.857 16.6856C18.3919 16.8953 18.8776 17.2025 19.2861 17.5897C19.6946 17.977 20.018 18.4365 20.2375 18.9419C20.4571 19.4473 20.5686 19.9887 20.5655 20.5349Z" fill="#000829"/>
<path d="M13.6254 8.69395C14.0586 8.98415 14.4211 9.37409 14.6924 9.84162C14.9637 10.3092 15.1384 10.845 15.2065 11.4188C15.2746 11.9924 15.2348 12.5927 15.0893 13.1852C14.944 13.7778 14.6957 14.351 14.3589 14.8721C14.0221 15.3933 13.6032 15.8522 13.1263 16.2226C12.6494 16.5931 12.1236 16.8678 11.5792 17.0312C11.0347 17.1945 10.4822 17.2433 9.95313 17.1746C9.42409 17.106 8.92881 16.9214 8.4957 16.6312C8.06252 16.341 7.70001 15.951 7.42872 15.4836C7.15744 15.016 6.98275 14.4802 6.91463 13.9064C6.84652 13.3328 6.88636 12.7325 7.03173 12.14C7.17716 11.5474 7.42539 10.9742 7.76224 10.4531C8.09903 9.93189 8.5179 9.47302 8.99483 9.10255C9.47176 8.73209 9.99748 8.45735 10.5419 8.29402C11.0864 8.13062 11.6389 8.08189 12.168 8.15055C12.697 8.21915 13.1923 8.40382 13.6254 8.69395Z" fill="#000829"/>
<path d="M18.5421 8.47279C18.109 8.76292 17.7464 9.15292 17.4751 9.62045C17.2038 10.0879 17.0291 10.6239 16.961 11.1975C16.8929 11.7713 16.9327 12.3715 17.0782 12.964C17.2236 13.5565 17.4718 14.1297 17.8086 14.6509C18.1455 15.1721 18.5643 15.631 19.0412 16.0015C19.5181 16.3719 20.0439 16.6467 20.5883 16.81C21.1328 16.9733 21.6853 17.0221 22.2144 16.9535C22.7434 16.8848 23.2387 16.7001 23.6718 16.41C24.105 16.1198 24.4676 15.7299 24.7388 15.2623C25.0101 14.7949 25.1848 14.2589 25.2529 13.6853C25.321 13.1115 25.2812 12.5113 25.1358 11.9188C24.9903 11.3263 24.7421 10.7531 24.4053 10.2319C24.0685 9.71072 23.6496 9.25179 23.1727 8.88132C22.6957 8.51092 22.17 8.23612 21.6256 8.07279C21.0811 7.90945 20.5286 7.86072 19.9995 7.92932C19.4705 7.99799 18.9753 8.18265 18.5421 8.47279Z" fill="#000829"/>
<path d="M4.52105 10.6889C6.48776 10.1499 5.18501 19.0081 3.5848 18.2813C1.82459 16.8337 1.25764 12.5943 4.52105 10.6889Z" fill="#000829"/>
<path d="M27.2492 10.5786C25.2823 10.0397 26.5853 18.8984 28.1855 18.1715C29.9456 16.7238 30.5126 12.484 27.2492 10.5786Z" fill="#000829"/>
<path d="M21.3346 4.92072C24.7286 4.33473 26.7852 5.45774 26.6712 9.22091C26.5596 10.6636 20.0841 5.13551 21.3346 4.92072Z" fill="#000829"/>
<path d="M10.4463 4.92071C7.05196 4.33472 4.97104 5.34777 5.08502 9.11057C5.19667 10.5532 11.6967 5.13556 10.4463 4.92071Z" fill="#000829"/>
<path d="M16.0715 26.5834C17.8377 26.5046 20.3247 25.5919 20.3294 26.4681C20.3587 27.3189 18.1801 29.5538 16.0715 29.5166C13.8879 29.6129 11.7449 27.2508 11.773 26.5834C11.7403 25.605 14.3164 26.5385 16.0715 26.5834Z" fill="#000829"/>
<path d="M23.6718 21.452C22.3114 23.0814 20.3422 24.9068 21.3346 25.8639C22.2836 26.6075 24.831 26.5036 26.7128 23.8338C28.0791 22.0408 27.6213 19.0464 26.8408 18.2512C25.6814 17.3343 25.2286 19.6547 23.6718 21.452Z" fill="#000829"/>
<path d="M15.9542 6.29167C17.7204 6.37049 20.2074 5.78507 20.2121 4.90891C20.2414 4.05809 18.0628 2.13575 15.9542 2.17292C13.7705 2.07661 11.6292 4.00192 11.6573 4.66927C11.6246 5.64772 14.1991 6.33657 15.9542 6.29167Z" fill="#000829"/>
<path d="M8.5795 21.3725C9.93996 23.0019 11.9092 24.8272 10.9167 25.7843C9.96771 26.5279 7.42031 26.424 5.53856 23.7543C4.17218 21.9613 4.63003 18.9668 5.41051 18.1716C6.5699 17.2547 7.02267 19.5751 8.5795 21.3725Z" fill="#000829"/>
<path fill-rule="evenodd" clip-rule="evenodd" d="M5.08143 8.6974C5.07956 8.83127 5.08074 8.96893 5.08503 9.11053C5.11219 9.46153 5.51759 9.4064 6.09755 9.11887C6.12537 9.10507 6.15359 9.09073 6.18219 9.07587C6.22113 9.05567 6.26077 9.03453 6.30106 9.01247C6.33355 8.99467 6.36646 8.97627 6.39976 8.95733C6.58046 8.85447 6.77273 8.73493 6.97165 8.60287C6.99588 8.5868 7.02011 8.5706 7.04447 8.5542C7.36767 8.33653 7.7068 8.08753 8.04208 7.82413C8.46873 7.48893 8.8891 7.1304 9.26213 6.7836C9.32391 6.72613 9.38438 6.669 9.44342 6.61234C9.47039 6.58647 9.49704 6.5607 9.52329 6.53505C9.71751 6.34568 9.8939 6.1626 10.0452 5.9919C10.1517 5.87179 10.2458 5.75782 10.3251 5.65209L10.3258 5.65111C10.6272 5.24897 10.713 4.96647 10.4463 4.92064C10.1901 4.87641 9.94138 4.84129 9.70053 4.81578C9.34135 4.77773 8.9996 4.76103 8.67666 4.76735C8.61005 4.76865 8.54429 4.77093 8.47937 4.77419C6.78017 4.85971 5.63325 5.62355 5.23547 7.32287C5.23244 7.3358 5.22946 7.3488 5.22651 7.3618C5.13757 7.75627 5.08842 8.20047 5.08143 8.6974ZM11.6574 4.6693C11.6453 5.02868 11.9851 5.34899 12.5067 5.60822C13.4053 6.05479 14.8438 6.32011 15.9542 6.2917C17.0509 6.34064 18.4254 6.13351 19.311 5.75971C19.8518 5.53147 20.2104 5.2411 20.2121 4.90894C20.2217 4.62918 19.9927 4.23357 19.6059 3.82987C18.8163 3.00581 17.3695 2.14801 15.9542 2.17295C14.4282 2.10565 12.9229 3.02568 12.1641 3.81369C11.8372 4.15327 11.6489 4.46833 11.6574 4.6693ZM10.3614 2.88364C8.63519 2.63716 6.80055 2.71566 5.34302 3.73465C3.635 4.92876 3.05939 6.94753 3.12678 9.17233L3.12815 9.2178C1.13036 10.5751 0.271791 12.6458 0.211005 14.5932C0.149773 16.555 0.896553 18.6388 2.35582 19.8389L2.55491 20.0027L2.73902 20.0863C2.72644 20.2266 2.71737 20.3681 2.7119 20.5103C2.66 21.8601 2.92758 23.5647 3.96867 24.951C5.15135 26.6163 6.6235 27.5915 8.07787 27.9831C8.79173 28.1753 9.5579 28.2359 10.2844 28.1267C10.3717 28.2727 10.4655 28.4107 10.5596 28.5385C10.8986 28.9988 11.3492 29.4708 11.864 29.894C12.8331 30.6907 14.3518 31.5728 16.0969 31.5169C17.7668 31.5262 19.2529 30.6857 20.2298 29.8839C20.7467 29.4596 21.2094 28.9755 21.5598 28.4815C21.6292 28.3835 21.698 28.2799 21.764 28.1713C22.5495 28.3258 23.3928 28.2731 24.1735 28.0629C25.6279 27.6713 27.1001 26.6961 28.2827 25.0308C29.3238 23.6445 29.5914 21.9399 29.5396 20.5901C29.5279 20.2867 29.4998 19.9865 29.4563 19.6943C30.8881 18.489 31.6201 16.4261 31.5594 14.4831C31.4985 12.5327 30.6377 10.4588 28.6336 9.10153C28.6651 6.95387 28.0864 5.00735 26.4617 3.81563C25.005 2.74701 23.1572 2.63676 21.4003 2.88678C21.3966 2.88203 21.3929 2.87733 21.3893 2.87269C21.02 2.39848 20.5403 1.95441 20.018 1.57639C19.015 0.850494 17.5635 0.162132 15.9799 0.172534C14.354 0.118212 12.8856 0.786614 11.8828 1.47534C11.3618 1.83315 10.8907 2.24735 10.5274 2.67661C10.4722 2.74176 10.4165 2.81085 10.3614 2.88364ZM22.1703 4.80886C21.9114 4.83252 21.6431 4.86817 21.3657 4.91531C21.3554 4.91707 21.345 4.91885 21.3346 4.92064C21.3035 4.92599 21.2771 4.93464 21.2553 4.9464C21.0893 5.03601 21.1892 5.30616 21.4586 5.67276L21.4594 5.67388C21.5439 5.78877 21.645 5.91312 21.7598 6.04433C21.7885 6.07719 21.8181 6.11049 21.8484 6.14417C21.928 6.23223 22.013 6.32295 22.1027 6.41563C22.1704 6.48558 22.2409 6.55664 22.3136 6.62849C22.3676 6.6818 22.4228 6.7356 22.4792 6.78967C22.8928 7.18633 23.3673 7.59967 23.8451 7.97933C24.1367 8.21113 24.4295 8.43033 24.7104 8.6256C24.7384 8.645 24.7663 8.6642 24.7939 8.68313C25.0437 8.85393 25.2828 9.00447 25.5017 9.12647C25.5055 9.1286 25.5092 9.1306 25.5128 9.13267C25.5471 9.15167 25.5808 9.16993 25.6139 9.18747C25.6818 9.22333 25.7475 9.25613 25.8105 9.28553C25.9678 9.35893 26.1091 9.41147 26.2296 9.43887C26.4907 9.4982 26.6543 9.43987 26.6713 9.2208C26.6779 9.0018 26.6772 8.79167 26.6693 8.59033C26.6532 8.18007 26.6072 7.8062 26.5328 7.46713C26.5289 7.44953 26.525 7.43207 26.521 7.41467C26.1248 5.69733 24.9845 4.89063 23.2867 4.7861C23.2267 4.78241 23.1661 4.77959 23.1049 4.77765C22.809 4.76824 22.4972 4.77899 22.1703 4.80886ZM26.7966 10.6469C26.6008 10.7856 26.4634 11.0739 26.3764 11.4605C26.3655 11.5086 26.3555 11.5582 26.3461 11.6093C26.2379 12.2042 26.2334 12.9921 26.3081 13.8159C26.3705 14.5029 26.4879 15.2149 26.6461 15.8607C26.6634 15.9313 26.6812 16.0011 26.6994 16.07C26.8664 16.7002 27.0725 17.2544 27.3037 17.6414C27.3209 17.6701 27.3382 17.6979 27.3556 17.7248C27.6102 18.1169 27.8929 18.3045 28.1855 18.1716C28.3943 17.9998 28.5864 17.7887 28.7573 17.5469C29.9362 15.8781 30.1054 12.7457 27.8179 10.9628C27.643 10.8265 27.4536 10.6979 27.2493 10.5786C27.0727 10.5303 26.9225 10.5576 26.7966 10.6469ZM24.5694 15.5276C24.6292 15.4423 24.6857 15.3539 24.7388 15.2625C25.01 14.7949 25.1847 14.2591 25.2529 13.6853C25.321 13.1117 25.2811 12.5114 25.1358 11.9189C25.061 11.6143 24.9591 11.3149 24.832 11.025C24.7609 10.8629 24.6819 10.7038 24.5954 10.5485C24.5356 10.4411 24.4722 10.3355 24.4052 10.232C24.0685 9.7108 23.6496 9.25193 23.1727 8.88147C22.6957 8.511 22.17 8.23627 21.6256 8.07293C21.3508 7.99047 21.074 7.9372 20.7992 7.91353C20.5294 7.89027 20.2616 7.89547 19.9995 7.92947C19.4705 7.99807 18.9752 8.18273 18.5421 8.47293C18.1089 8.76307 17.7464 9.15307 17.4751 9.62053C17.2942 9.93233 17.1563 10.2745 17.0642 10.638C17.0182 10.8196 16.9837 11.0065 16.961 11.1977C16.9609 11.199 16.9607 11.2003 16.9605 11.2017C16.8931 11.7742 16.9331 12.373 17.0782 12.9641C17.0879 13.0039 17.0981 13.0437 17.1089 13.0834C17.2483 13.5999 17.4658 14.0998 17.7518 14.5613C17.7705 14.5914 17.7894 14.6213 17.8086 14.651C17.9721 14.9041 18.155 15.1424 18.3544 15.3631C18.5658 15.5969 18.7958 15.8109 19.0412 16.0015C19.3862 16.2695 19.7568 16.4874 20.1415 16.6493C20.2885 16.7112 20.4377 16.7649 20.5883 16.8101C20.8445 16.8869 21.1025 16.9385 21.359 16.9643C21.6476 16.9933 21.9343 16.9899 22.2144 16.9535C22.7434 16.8849 23.2387 16.7003 23.6718 16.4101C24.0203 16.1767 24.323 15.8787 24.5694 15.5276ZM20.1546 18.7633C20.1282 18.7097 20.1005 18.6567 20.0717 18.6044C19.8664 18.2311 19.6017 17.8889 19.286 17.5898C19.0092 17.3274 18.697 17.1017 18.358 16.9182C18.1967 16.8309 18.0293 16.7532 17.8569 16.6856C17.466 16.5323 17.0543 16.4334 16.6347 16.3913C16.4804 16.3758 16.325 16.368 16.1692 16.368C16.0135 16.368 15.8582 16.3758 15.7041 16.3913C15.2844 16.4333 14.8726 16.5323 14.4815 16.6856C14.224 16.7865 13.9779 16.9101 13.7463 17.0543C13.4968 17.2097 13.2642 17.389 13.0524 17.5898C12.6544 17.967 12.3372 18.4128 12.1181 18.9029C12.1123 18.9159 12.1065 18.9289 12.1009 18.9419C12.098 18.9485 12.0952 18.9551 12.0924 18.9616C11.8785 19.4614 11.7699 19.9958 11.773 20.5349C11.7699 21.0811 11.8813 21.6224 12.1009 22.1279C12.3205 22.6333 12.6438 23.0928 13.0524 23.4801C13.4466 23.8537 13.9125 24.1529 14.4253 24.3618C14.4439 24.3694 14.4627 24.3769 14.4815 24.3842C14.9613 24.5723 15.4724 24.6786 15.9908 24.6984C16.033 24.7001 16.0753 24.7011 16.1177 24.7015C16.1348 24.7017 16.152 24.7019 16.1692 24.7019C16.7485 24.7019 17.322 24.5939 17.8569 24.3842C17.9559 24.3455 18.0532 24.3033 18.1486 24.2579C18.5689 24.0581 18.9531 23.7956 19.286 23.4801C19.6946 23.0928 20.0179 22.6333 20.2375 22.1279C20.457 21.6224 20.5685 21.0811 20.5654 20.5349C20.5685 19.9887 20.457 19.4474 20.2375 18.9419C20.2114 18.8817 20.1837 18.8221 20.1546 18.7633ZM18.7045 26.1923C18.6527 26.2008 18.6002 26.2096 18.547 26.2187C18.4953 26.2275 18.443 26.2367 18.3902 26.246C18.3559 26.2521 18.3213 26.2583 18.2865 26.2645C18.1995 26.2801 18.1112 26.2961 18.0222 26.3123C17.4082 26.4239 16.7535 26.5429 16.1692 26.5782C16.1364 26.5802 16.1038 26.5819 16.0715 26.5833C15.4787 26.5682 14.7922 26.4517 14.1442 26.3417C14.0673 26.3286 13.9909 26.3156 13.9153 26.3029C13.8809 26.2971 13.8467 26.2914 13.8126 26.2858C13.7743 26.2795 13.7362 26.2732 13.6984 26.2671C13.4398 26.2251 13.1932 26.1886 12.9679 26.1653C12.2563 26.0917 11.7585 26.1497 11.773 26.5833C11.7711 26.6263 11.7783 26.6762 11.7939 26.732C11.8398 26.8963 11.9586 27.1119 12.1357 27.3504C12.3014 27.5733 12.5182 27.8164 12.7742 28.0565C12.8145 28.0944 12.8559 28.1321 12.8982 28.1698C13.7185 28.8999 14.889 29.5687 16.0715 29.5165C17.2258 29.5369 18.4009 28.8764 19.2235 28.1348C19.2713 28.0917 19.3179 28.0483 19.3632 28.0048C19.6081 27.7698 19.8161 27.5303 19.9756 27.3047C20.207 26.9776 20.3366 26.6799 20.3293 26.468C20.3273 26.0987 19.8843 26.0472 19.24 26.1172C19.0736 26.1353 18.8937 26.1614 18.7045 26.1923ZM22.2769 26.2313C23.4821 26.4057 25.2882 25.8551 26.7128 23.834C27.504 22.7956 27.6835 21.3544 27.5429 20.1707C27.4407 19.3103 27.1693 18.5861 26.8408 18.2513C26.3347 17.8511 25.9633 18.0677 25.5759 18.5883C25.3869 18.8424 25.1939 19.1689 24.9798 19.5315C24.6274 20.1281 24.2174 20.8223 23.6718 21.4522C23.4465 21.7221 23.2044 21.9973 22.9619 22.2731C22.2746 23.0548 21.5834 23.8408 21.2578 24.521C21.0047 25.0498 20.9724 25.5147 21.3346 25.864C21.5651 26.0447 21.89 26.1753 22.2769 26.2313ZM9.84544 26.1672C10.2891 26.1235 10.6611 25.9847 10.9168 25.7843C11.2685 25.4451 11.2483 24.9971 11.0151 24.4873C10.6993 23.7966 9.99245 22.9927 9.28956 22.1934C9.04701 21.9176 8.80499 21.6423 8.57962 21.3724C8.03398 20.7425 7.62399 20.0483 7.2716 19.4518C6.96603 18.9345 6.70383 18.4905 6.43419 18.2257C6.12757 17.9245 5.81129 17.8547 5.41062 18.1716C5.07719 18.5113 4.80265 19.2524 4.70406 20.1297C4.57188 21.306 4.75603 22.7272 5.53868 23.7542C6.91327 25.7043 8.64296 26.2855 9.84544 26.1672ZM10.8264 17.1835C11.077 17.1571 11.329 17.1062 11.5793 17.0311C11.8202 16.9588 12.0576 16.8647 12.2886 16.7501C12.5795 16.6058 12.8605 16.4291 13.1264 16.2226C13.4419 15.9775 13.7321 15.6936 13.9898 15.3787C14.1216 15.2176 14.245 15.0484 14.3589 14.8721C14.4222 14.7742 14.4823 14.6745 14.5392 14.5733C14.7853 14.135 14.9713 13.6665 15.0894 13.1851C15.0947 13.1637 15.0998 13.1422 15.1048 13.1207C15.2376 12.5491 15.2722 11.9716 15.2066 11.4187C15.1885 11.2667 15.1629 11.1173 15.1301 10.9711C15.1082 10.8735 15.083 10.7772 15.0546 10.6826C14.9651 10.3845 14.8438 10.1024 14.6925 9.8416C14.4212 9.37407 14.0587 8.98407 13.6255 8.69393C13.1923 8.4038 12.6971 8.21913 12.1681 8.15047C11.6414 8.08213 11.0916 8.13013 10.5496 8.29167C10.5471 8.2924 10.5445 8.2932 10.542 8.29393C9.99754 8.45727 9.47183 8.732 8.9949 9.10247C8.51797 9.47293 8.09909 9.93187 7.76231 10.453C7.76015 10.4563 7.758 10.4596 7.75591 10.4629C7.59304 10.7161 7.45106 10.9814 7.33155 11.2552C7.20629 11.5423 7.10579 11.8386 7.0318 12.1399C6.88642 12.7325 6.84659 13.3327 6.9147 13.9064C6.96917 14.3652 7.09181 14.7999 7.27754 15.1947C7.32404 15.2935 7.37446 15.3899 7.42879 15.4835C7.70007 15.951 8.06259 16.3409 8.49576 16.6311C8.92887 16.9213 9.42415 17.1059 9.9532 17.1746C10.239 17.2117 10.5318 17.2145 10.8264 17.1835ZM5.24925 15.4047C5.33442 14.9742 5.4014 14.5275 5.44651 14.088C5.53658 13.2106 5.53948 12.3619 5.42592 11.7292C5.4016 11.5937 5.37194 11.4681 5.33665 11.3542C5.31597 11.2875 5.29337 11.2248 5.26877 11.1665C5.10892 10.7877 4.86501 10.5948 4.52118 10.689C4.36987 10.7774 4.22679 10.8707 4.09168 10.9686C1.50698 12.841 1.83989 16.3628 3.24988 17.9565C3.35575 18.0762 3.46769 18.185 3.58493 18.2815C3.97194 18.4572 4.34155 18.0723 4.65172 17.3954C4.67276 17.3495 4.69352 17.3022 4.714 17.2537C4.8548 16.9201 4.98205 16.5269 5.09149 16.1014C5.14924 15.8768 5.20204 15.6432 5.24925 15.4047Z" fill="#EA25F9"/>
</svg>
