<svg width="186" height="29" viewBox="0 0 186 29" fill="none" xmlns="http://www.w3.org/2000/svg">
<path d="M0.865723 27.2134V2.26978H7.66535L19.1173 17.5923V2.26978H25.917V27.2134H19.1173L7.66535 11.7797V27.2134H0.865723Z" fill="#6B0E89"/>
<path d="M33.9692 27.2134V2.26978H50.6104V7.79302H40.7689V11.98H50.2525V17.4141H40.7689V21.6902H50.6104V27.2134H33.9692Z" fill="#6B0E89"/>
<path d="M68.8619 27.2134H61.8834V7.79302H55.2627V2.26978H75.4826V7.79302H68.8619V27.2134Z" fill="#6B0E89"/>
<path d="M92.0345 13.3162H105.455C105.455 22.8763 100.406 27.9504 92.2051 27.9504C84.2679 27.9504 78.3101 23.1237 78.3101 15.0271C78.3101 6.67108 83.7152 1.50317 92.0487 1.50317C101.47 1.50317 104.045 8.48759 104.045 8.48759L97.5888 11.0455C97.5888 11.0455 96.0765 7.10846 91.8253 7.10846C88.7129 7.10846 85.4139 9.44767 85.4139 14.9159C85.4139 19.4943 88.3638 22.6566 92.1604 22.6566C95.556 22.6566 97.2303 20.7249 97.4921 18.3048H92.0345V13.3162Z" fill="#6B0E89"/>
<path d="M141.332 2.27197L132.161 27.2156H139.184L140.75 22.5832H149.831L151.397 27.2156H158.465L149.205 2.27197H141.332ZM145.268 8.73059L148.265 17.6836H142.338L145.268 8.73059Z" fill="#6B0E89"/>
<path d="M162.625 2.27197V27.2156H169.425V17.5945H169.961L176.224 27.2156H184.634L176.739 16.9597C179.466 16.5324 182.453 14.4579 182.453 10.0001C182.453 5.62122 179.683 2.27197 172.936 2.27197H162.625ZM169.425 7.26071H171.214C174.736 7.26071 175.598 8.53978 175.598 10.3786C175.598 12.5923 174.177 13.4966 171.214 13.4966H169.425V7.26071Z" fill="#6B0E89"/>
<path d="M111.449 27.2134V2.26978H128.09V7.79302H118.249V11.98H127.733V17.4141H118.249V21.6902H128.09V27.2134H111.449Z" fill="#6B0E89"/>
</svg>