<svg width="186" height="57" viewBox="0 0 186 57" fill="none" xmlns="http://www.w3.org/2000/svg">
<path fill-rule="evenodd" clip-rule="evenodd" d="M5.7425 2.04255C3.57727 2.04262 1.81916 3.80078 1.81916 5.96602V51.4874C1.81916 53.6527 3.57735 55.4109 5.74264 55.4109H45.4351L45.4351 2.04952L5.7425 2.04255C5.74255 2.04255 5.74245 2.04255 5.7425 2.04255ZM47.0042 2.0498L47.0042 55.4109H179.757C181.923 55.4109 183.681 53.6527 183.681 51.4874V5.9966C183.681 3.83131 181.923 2.07312 179.757 2.07312L47.0042 2.0498ZM0.25 5.96602C0.25 2.93411 2.71072 0.473389 5.74264 0.473389L179.757 0.503958C182.789 0.503958 185.25 2.96468 185.25 5.9966V51.4874C185.25 54.5194 182.789 56.9801 179.757 56.9801H5.74264C2.71072 56.9801 0.25 54.5194 0.25 51.4874V5.96602Z" fill="#C60B40"/>
<path d="M37.4759 26.8767L37.1702 26.357C37.1702 22.5355 35.4276 21.0069 33.3487 19.8146C33.9602 19.6617 34.6022 19.5089 34.7856 18.7446C35.8556 18.4694 36.0696 17.9803 36.1919 17.4606C36.4671 17.2771 37.4148 16.7574 37.3231 15.8402C37.8428 15.4734 38.1485 15.0148 37.9957 14.3422C38.5459 13.7308 38.6988 13.2111 38.4848 12.7525C39.1574 11.8965 38.8517 11.4685 38.5765 11.0405C39.0962 10.1233 38.6377 9.14502 37.2314 9.29788C36.6811 8.47244 35.4276 8.65587 35.2442 8.65587C35.0302 8.38073 34.755 8.16672 33.899 8.25844C33.3487 7.76929 32.7067 7.83043 32.0647 8.07501C31.3004 7.46357 30.7807 7.95272 30.1998 8.13615C29.2827 7.83043 29.0687 8.25844 28.6101 8.4113C27.6012 8.19729 27.2955 8.65587 26.8064 9.14502H26.2561C24.7275 10.0316 23.9632 11.8353 23.688 12.7525C23.4129 11.8353 22.6486 10.0316 21.12 9.14502H20.5697C20.0806 8.65587 19.7749 8.19729 18.766 8.4113C18.3074 8.25844 18.0934 7.83043 17.1763 8.13615C16.8094 8.01387 16.4425 7.76929 16.0451 7.76929C15.8311 7.76929 15.5865 7.86101 15.3419 8.04444C14.6999 7.79986 14.0579 7.70814 13.5076 8.22786C12.6516 8.10558 12.3765 8.35015 12.1625 8.6253C11.979 8.6253 10.7562 8.44186 10.1753 9.2673C8.76901 9.11444 8.31043 10.0927 8.83015 11.0099C8.55501 11.4379 8.24929 11.8965 8.92187 12.7219C8.67729 13.1805 8.83015 13.7002 9.41102 14.3117C9.25816 14.9842 9.56388 15.4428 10.0836 15.8097C9.99188 16.6963 10.909 17.2465 11.2148 17.43C11.3065 17.9497 11.551 18.4389 12.6211 18.714C12.8045 19.5089 13.4465 19.6312 14.0579 19.784C12.0096 20.9763 10.2365 22.5049 10.2365 26.3264L9.93074 26.8461C7.57671 28.2524 5.43668 32.8076 8.76901 36.5068C8.98301 37.6685 9.34987 38.494 9.68616 39.4111C10.1753 43.1103 13.3242 44.8529 14.1802 45.0669C15.4031 45.984 16.7177 46.8706 18.4603 47.4821C20.1111 49.1635 21.9149 49.8055 23.7492 49.8055H23.8409C25.6446 49.8055 27.4484 49.1635 29.1298 47.4821C30.903 46.8706 32.187 46.0146 33.4099 45.0669C34.2353 44.8529 37.4148 43.1409 37.9039 39.4111C38.2402 38.494 38.5765 37.6685 38.8211 36.5068C41.9394 32.8382 39.83 28.283 37.4759 26.8767Z" fill="#080303"/>
<path d="M35.6414 26.2351C35.5191 27.7637 27.5093 20.8851 28.9156 20.6711C32.6454 20.0291 35.7637 22.2302 35.6414 26.2351Z" fill="#C60B40"/>
<path d="M32.1259 33.8779C30.1082 35.1619 27.2039 34.3365 25.6447 32.0131C24.0855 29.6896 24.4524 26.7547 26.4396 25.4401C28.4573 24.1561 31.3616 24.9815 32.9208 27.305C34.48 29.6285 34.1131 32.5633 32.1259 33.8779Z" fill="#C60B40"/>
<path d="M26.5315 10.1845C26.5926 10.5208 26.6843 10.7348 26.7761 10.8265C27.2346 10.3374 27.5709 9.84823 28.1518 9.38965C28.1518 9.6648 28.0295 9.93995 28.3658 10.1539C28.6715 9.72594 29.0995 9.35908 29.6498 9.05336C29.3747 9.51194 29.5887 9.6648 29.7415 9.84823C30.1695 9.48137 30.567 9.1145 31.3313 8.83936C31.1173 9.08393 30.8115 9.35908 31.1478 9.63422C31.5758 9.35908 32.0038 9.08393 33.0433 8.9005C32.7987 9.14508 32.3401 9.42022 32.6153 9.6648C33.1656 9.4508 33.7464 9.29794 34.419 9.20622C34.1133 9.48137 33.8381 9.72594 34.0827 9.93994C34.6636 9.75651 35.4585 9.51193 36.2533 9.72594L35.7642 10.2151C35.703 10.2762 36.9259 10.2762 37.7208 10.2762C37.415 10.6737 37.1399 11.0711 36.9565 11.7743C37.0482 11.866 37.4456 11.8048 37.8125 11.7743C37.415 12.5691 36.773 12.7831 36.5896 13.1194C36.8342 13.3028 37.1399 13.2417 37.5068 13.1194C37.2316 13.7003 36.6508 14.0671 36.1922 14.5563C36.3145 14.648 36.4979 14.6786 36.987 14.6174C36.559 15.076 36.0393 15.4734 35.4585 15.8403C35.5502 15.9626 35.9476 15.9626 36.2839 15.9626C35.7336 16.5129 35.0304 16.788 34.3579 17.1243C34.6942 17.3383 34.9387 17.3077 35.1833 17.3077C34.7247 17.7052 33.9299 17.8886 33.1656 18.1332C33.3184 18.3472 33.4407 18.4083 33.7464 18.4695C32.9516 18.8975 31.851 18.714 31.5147 18.9281C31.6064 19.1421 31.8204 19.2949 32.065 19.4172C30.8115 19.4783 27.3569 19.3561 26.6843 16.7575C27.9684 15.3511 30.3224 13.6697 34.3884 11.6214C31.2395 12.6608 28.3964 14.0671 26.0118 16.0237C23.2603 14.8009 25.1863 11.4991 26.5315 10.1845Z" fill="#68B83A"/>
<path d="M23.7189 19.601C25.7061 19.5704 28.1518 21.0684 28.1518 22.4441C28.1518 23.667 26.4398 24.6759 23.7495 24.6453C21.1203 24.6147 19.3472 23.3919 19.3472 22.1996C19.3472 21.2518 21.4872 19.5398 23.7189 19.601Z" fill="#C60B40"/>
<path d="M13.6295 18.5613C13.9352 18.5001 14.0575 18.439 14.2104 18.225C13.4767 17.9804 12.6818 17.797 12.1927 17.3995C12.4372 17.3995 12.6818 17.4607 13.0181 17.2161C12.3455 16.8492 11.6424 16.5741 11.0921 16.0544C11.4284 16.0544 11.7952 16.0544 11.9175 15.9321C11.3061 15.5652 10.7863 15.1372 10.3889 14.7092C10.8781 14.7704 11.0615 14.7092 11.1838 14.6481C10.7252 14.1895 10.1443 13.7921 9.86919 13.2112C10.2361 13.3335 10.5418 13.3641 10.7863 13.2112C10.6335 12.8749 9.96091 12.6609 9.56348 11.866C9.93034 11.8966 10.3278 11.9578 10.4195 11.866C10.2361 11.1629 9.93034 10.7655 9.65519 10.368C10.4501 10.368 11.6729 10.368 11.6118 10.3069L11.1226 9.81773C11.9175 9.60373 12.7124 9.8483 13.2932 10.0317C13.5684 9.81773 13.2932 9.57315 12.9569 9.29801C13.6295 9.38972 14.2104 9.54258 14.7607 9.75659C15.0358 9.51201 14.5773 9.23686 14.3327 8.99229C15.3721 9.17572 15.8001 9.45087 16.2281 9.72601C16.5338 9.42029 16.2587 9.17573 16.0447 8.93115C16.809 9.2063 17.2064 9.57316 17.6344 9.94002C17.7873 9.75659 18.0013 9.60373 17.7261 9.14515C18.2764 9.45087 18.7044 9.81773 19.0102 10.2457C19.3465 10.0317 19.2242 9.72602 19.2242 9.48144C19.805 9.94002 20.1719 10.4292 20.5999 10.9183C20.6916 10.8572 20.7528 10.6432 20.8445 10.2763C22.2202 11.5909 24.1462 14.8621 21.3336 16.1767C18.949 14.2506 16.1058 12.8443 12.9569 11.7743C16.9924 13.8226 19.3465 15.5041 20.661 16.9104C19.9885 19.509 16.5644 19.6313 15.2804 19.5701C15.525 19.4479 15.739 19.295 15.8307 19.081C15.525 18.7753 14.3938 18.9893 13.6295 18.5613Z" fill="#68B83A"/>
<path d="M18.552 20.5485C19.9277 20.7625 11.9485 27.6412 11.8262 26.1126C11.6733 22.1077 14.7917 19.9065 18.552 20.5485Z" fill="#C60B40"/>
<path d="M10.0533 35.8647C8.09671 34.3361 7.48528 29.8115 11.0928 27.7937C13.2634 27.2434 11.8265 36.6596 10.0533 35.8647Z" fill="#C60B40"/>
<path d="M17.5436 43.9359C16.443 44.5779 13.7833 44.3334 11.8878 41.643C10.6038 39.4113 10.7872 37.1184 11.6738 36.4458C13.019 35.651 15.0979 36.721 16.6876 38.5553C18.0633 40.1756 18.7053 43.0799 17.5436 43.9359Z" fill="#C60B40"/>
<path d="M15.373 34.1222C13.3553 32.8382 12.9884 29.8727 14.5782 27.5493C16.1373 25.2258 19.0417 24.3698 21.0594 25.6844C23.0771 26.9684 23.444 29.9339 21.8543 32.2573C20.2645 34.5808 17.3602 35.4062 15.373 34.1222Z" fill="#C60B40"/>
<path d="M23.7497 48.5216C21.3345 48.6133 18.9805 46.565 19.011 45.8618C18.9805 44.8224 21.9459 43.997 23.872 44.0581C25.8285 43.9664 28.4272 44.6695 28.4577 45.6173C28.4883 46.5038 26.0731 48.5522 23.7497 48.5216Z" fill="#C60B40"/>
<path d="M28.5793 38.2496C28.5793 40.6953 26.4392 42.6825 23.7489 42.6825C21.0586 42.6825 18.888 40.7259 18.8574 38.3107V38.2496C18.8574 35.8038 20.9974 33.8167 23.6878 33.8167C26.3781 33.8167 28.5487 35.7732 28.5793 38.1884V38.2496Z" fill="#C60B40"/>
<path d="M35.3359 41.7654C33.257 44.6086 30.4444 44.7308 29.405 43.936C28.3044 42.9271 29.1604 39.7476 30.6584 38.0356C32.3704 36.1096 34.2047 34.8867 35.4888 35.865C36.3448 36.6904 36.8645 39.8699 35.3359 41.7654Z" fill="#C60B40"/>
<path d="M37.2314 35.7733C35.4582 36.5376 34.0213 27.1215 36.1919 27.7023C39.7994 29.7201 39.1574 34.2141 37.2314 35.7733Z" fill="#C60B40"/>
<path d="M57.6838 30.1784V36.1705H54.6572V21.1292H60.313C62.025 21.1292 63.3702 21.5266 64.3179 22.2909C65.2962 23.0857 65.7548 24.1558 65.7548 25.5621C65.7548 26.3264 65.5408 26.9989 65.1434 27.5492C64.7459 28.0995 64.1345 28.5581 63.3702 28.8944C64.2568 29.1695 64.8988 29.5975 65.2962 30.209C65.6936 30.8204 65.8771 31.5847 65.8771 32.4713V33.5719C65.8771 33.9999 65.9382 34.4279 66.0605 34.8865C66.1828 35.345 66.3662 35.6813 66.6414 35.8953V36.1093H63.5536C63.2785 35.8953 63.095 35.5285 63.0033 35.0087C62.9116 34.489 62.881 33.9999 62.881 33.5413V32.4713C62.881 31.707 62.667 31.1261 62.2696 30.7287C61.8722 30.3007 61.2913 30.1173 60.527 30.1173H57.6838V30.1784ZM57.6838 27.8549H60.2824C61.1385 27.8549 61.7499 27.6715 62.1779 27.3046C62.6059 26.9378 62.7893 26.4181 62.7893 25.7149C62.7893 25.0423 62.5753 24.4921 62.1779 24.064C61.7499 23.6666 61.1385 23.4526 60.3436 23.4526H57.6838V27.8549Z" fill="#C60B40"/>
<path d="M74.9577 36.1706C74.8354 35.926 74.7437 35.6508 74.6826 35.3757C74.5908 35.1006 74.5603 34.7948 74.4991 34.5197C74.1934 35.07 73.796 35.5286 73.2763 35.8648C72.7565 36.2317 72.1757 36.4151 71.4725 36.4151C70.3108 36.4151 69.3936 36.1094 68.7822 35.498C68.1402 34.8865 67.8345 34.0611 67.8345 33.0217C67.8345 31.9211 68.2625 31.0651 69.0879 30.4842C69.9439 29.8728 71.1668 29.5671 72.7871 29.5671H74.4686V28.6805C74.4686 28.1302 74.3157 27.7327 74.0405 27.427C73.7654 27.1213 73.3374 26.999 72.7871 26.999C72.298 26.999 71.9311 27.1213 71.6559 27.3659C71.3808 27.6105 71.2585 27.9467 71.2585 28.3442H68.3542V28.283C68.293 27.3353 68.7211 26.5404 69.5771 25.8373C70.4331 25.1647 71.5948 24.7979 73.0011 24.7979C74.3463 24.7979 75.4163 25.1341 76.2417 25.8067C77.0672 26.4793 77.4952 27.4576 77.4952 28.711V33.3274C77.4952 33.8471 77.5257 34.3363 77.6175 34.7948C77.7092 35.2534 77.8315 35.712 77.9843 36.1706H74.9577ZM72.1757 34.1834C72.6954 34.1834 73.1845 34.0611 73.582 33.786C74.01 33.5108 74.2851 33.2357 74.4074 32.8688V31.2791H72.726C72.084 31.2791 71.5948 31.4319 71.2585 31.7682C70.9222 32.0739 70.7694 32.4714 70.7694 32.93C70.7694 33.2968 70.8917 33.6025 71.1362 33.8165C71.4114 34.0611 71.7477 34.1834 72.1757 34.1834Z" fill="#C60B40"/>
<path d="M85.7801 33.1133C85.7801 32.777 85.6272 32.5019 85.2909 32.2573C84.9852 32.0127 84.3737 31.7987 83.5177 31.6153C82.2031 31.3402 81.1943 30.9427 80.5217 30.423C79.8491 29.9033 79.5128 29.1696 79.5128 28.283C79.5128 27.3047 79.9103 26.5098 80.7357 25.8372C81.5306 25.1647 82.6312 24.8284 83.9763 24.8284C85.4132 24.8284 86.5443 25.1647 87.3698 25.8372C88.2258 26.5098 88.6232 27.3352 88.5927 28.3747L88.5621 28.4358H85.6578C85.6578 27.9773 85.5049 27.6104 85.2298 27.3353C84.9546 27.0601 84.5266 26.9072 83.9763 26.9072C83.4872 26.9072 83.0897 27.0295 82.8146 27.2741C82.5394 27.5187 82.3866 27.7938 82.3866 28.1607C82.3866 28.497 82.5394 28.8027 82.8146 29.0167C83.1203 29.2307 83.7012 29.4447 84.5877 29.5976C85.9635 29.8727 86.9723 30.2701 87.6449 30.8204C88.3175 31.3402 88.6538 32.0739 88.6538 33.0216C88.6538 34.0305 88.2258 34.8559 87.3698 35.4979C86.5138 36.1399 85.3826 36.4457 83.9763 36.4457C82.4783 36.4457 81.3166 36.0788 80.4606 35.3145C79.6045 34.5502 79.1765 33.6942 79.2377 32.7465L79.2683 32.6853H82.0197C82.0503 33.2968 82.2337 33.7248 82.6006 33.9999C82.9674 34.2751 83.4566 34.3973 84.068 34.3973C84.6183 34.3973 85.0463 34.2751 85.352 34.0611C85.6272 33.7859 85.7801 33.4802 85.7801 33.1133Z" fill="#C60B40"/>
<path d="M100.699 30.9125C100.699 32.5634 100.332 33.878 99.5368 34.8868C98.7725 35.8957 97.7025 36.3849 96.3268 36.3849C95.7459 36.3849 95.2262 36.2626 94.7676 36.0486C94.3091 35.8346 93.9116 35.4983 93.6059 35.1008V40.4509H90.6099V24.9816H93.3308L93.5142 26.2962C93.8505 25.807 94.2479 25.4402 94.7065 25.165C95.1651 24.8899 95.7154 24.7676 96.3268 24.7676C97.7025 24.7676 98.7725 25.3179 99.5368 26.3879C100.301 27.4579 100.699 28.8948 100.699 30.6374V30.9125ZM97.7025 30.6679C97.7025 29.5979 97.5191 28.7725 97.1828 28.0999C96.8465 27.4579 96.2962 27.1216 95.5625 27.1216C95.1039 27.1216 94.7065 27.2133 94.4008 27.3968C94.095 27.5802 93.8199 27.8553 93.6365 28.1916V33.0831C93.8199 33.3888 94.0645 33.6334 94.4008 33.8168C94.7065 33.9697 95.1039 34.0614 95.5931 34.0614C96.3268 34.0614 96.8465 33.7863 97.2134 33.2054C97.5497 32.6245 97.7331 31.8602 97.7331 30.8819V30.6679H97.7025Z" fill="#C60B40"/>
<path d="M112.652 30.9123C112.652 32.5631 112.285 33.9083 111.551 34.9172C110.817 35.926 109.747 36.4152 108.341 36.4152C107.699 36.4152 107.118 36.2929 106.66 36.0177C106.171 35.7426 105.773 35.3452 105.437 34.8254L105.223 36.2012H102.655V20.0898H105.651V26.2042C105.987 25.7456 106.354 25.4093 106.813 25.1648C107.271 24.9202 107.791 24.7979 108.372 24.7979C109.778 24.7979 110.879 25.3482 111.612 26.4182C112.346 27.4882 112.713 28.9251 112.713 30.6983V30.9123H112.652ZM109.656 30.6983C109.656 29.5977 109.503 28.7417 109.167 28.0997C108.861 27.4576 108.311 27.1519 107.546 27.1519C107.088 27.1519 106.69 27.2436 106.354 27.4576C106.018 27.6411 105.773 27.9468 105.59 28.3137V33.0217C105.773 33.358 106.018 33.6332 106.354 33.786C106.69 33.9694 107.088 34.0612 107.546 34.0612C108.311 34.0612 108.861 33.786 109.167 33.2357C109.472 32.6854 109.625 31.8906 109.625 30.8817V30.6983H109.656Z" fill="#C60B40"/>
<path d="M119.439 36.4151C117.819 36.4151 116.535 35.8954 115.587 34.856C114.609 33.8165 114.15 32.5019 114.15 30.9122V30.4842C114.15 28.8333 114.609 27.4576 115.526 26.3876C116.443 25.3176 117.666 24.7673 119.195 24.7978C120.693 24.7978 121.885 25.2564 122.71 26.1736C123.536 27.0907 123.964 28.3136 123.964 29.8728V31.5236H117.299L117.269 31.5848C117.33 32.3185 117.574 32.9299 118.002 33.3885C118.43 33.8471 119.042 34.0917 119.776 34.0917C120.448 34.0917 120.998 34.0305 121.426 33.8777C121.854 33.7554 122.344 33.5414 122.863 33.2357L123.689 35.1005C123.23 35.4674 122.649 35.7731 121.916 36.0177C121.182 36.2928 120.356 36.4151 119.439 36.4151ZM119.164 27.1213C118.614 27.1213 118.155 27.3353 117.85 27.7633C117.513 28.1913 117.33 28.7416 117.238 29.4447L117.269 29.5059H120.968V29.2308C120.968 28.5887 120.815 28.069 120.509 27.7022C120.234 27.3353 119.776 27.1213 119.164 27.1213Z" fill="#C60B40"/>
<path d="M131.576 27.6104L130.475 27.5798C130.017 27.5798 129.65 27.6715 129.375 27.855C129.1 28.0384 128.855 28.3136 128.702 28.6498V36.2011H125.706V25.0424H128.488L128.61 26.6932C128.886 26.1124 129.222 25.6538 129.619 25.3175C130.047 24.9812 130.506 24.8284 131.056 24.8284C131.209 24.8284 131.331 24.8284 131.484 24.8589C131.606 24.8895 131.729 24.9201 131.882 24.9507L131.576 27.6104Z" fill="#C60B40"/>
<path d="M138.974 27.6104L137.874 27.5798C137.415 27.5798 137.048 27.6715 136.773 27.855C136.498 28.0384 136.253 28.3136 136.101 28.6498V36.2011H133.104V25.0424H135.887L136.009 26.6932C136.284 26.1124 136.62 25.6538 137.018 25.3175C137.446 24.9812 137.904 24.8284 138.455 24.8284C138.607 24.8284 138.73 24.8284 138.883 24.8589C139.005 24.8895 139.127 24.9201 139.28 24.9507L138.974 27.6104Z" fill="#C60B40"/>
<path d="M144.813 31.4929L144.936 32.1044H144.997L147.137 25.0117H150.377L145.853 37.8519C145.547 38.6467 145.119 39.3193 144.569 39.8696C144.019 40.4199 143.224 40.6951 142.123 40.6951C141.879 40.6951 141.634 40.6645 141.42 40.6339C141.206 40.6033 140.931 40.5422 140.625 40.4505L140.961 38.2493C141.053 38.2493 141.145 38.2799 141.237 38.2799C141.328 38.2799 141.42 38.3105 141.512 38.3105C142.001 38.3105 142.398 38.1882 142.643 37.9436C142.918 37.699 143.132 37.3933 143.254 37.0264L143.591 36.1704L139.616 25.0117H142.857L144.813 31.4929Z" fill="#C60B40"/>
<path d="M160.1 30.7287V36.1705H157.073V21.1292H163.065C164.777 21.1292 166.153 21.5572 167.131 22.4437C168.11 23.3303 168.629 24.492 168.629 25.9289C168.629 27.3658 168.14 28.5275 167.131 29.3835C166.153 30.2701 164.777 30.6981 163.065 30.6981H160.1V30.7287ZM160.1 28.4052H163.065C163.891 28.4052 164.533 28.1607 164.961 27.7327C165.389 27.2741 165.603 26.6932 165.603 25.9901C165.603 25.2563 165.389 24.6755 164.961 24.1863C164.533 23.7278 163.891 23.4832 163.035 23.4832H160.069V28.4052H160.1Z" fill="#C60B40"/>
<path d="M173.765 22.3522H170.769V20.0898H173.765V22.3522ZM173.765 36.1706H170.769V25.0119H173.765V36.1706Z" fill="#C60B40"/>
<path d="M154.994 50.9978C152.365 50.9978 150.989 49.9584 149.797 49.0718C148.696 48.2464 147.84 47.6044 145.945 47.6044C144.05 47.6044 143.194 48.2464 142.093 49.0718C140.901 49.989 139.525 50.9978 136.896 50.9978C134.267 50.9978 132.891 49.9584 131.699 49.0718C130.598 48.2464 129.742 47.6044 127.846 47.6044C125.951 47.6044 125.095 48.2464 123.994 49.0718C122.802 49.989 121.426 50.9978 118.797 50.9978C116.168 50.9978 114.792 49.9584 113.6 49.0718C112.499 48.2464 111.643 47.6044 109.748 47.6044C107.853 47.6044 106.997 48.2464 105.896 49.0718C104.704 49.989 103.328 50.9978 100.699 50.9978C98.0695 50.9978 96.6938 49.9584 95.5015 49.0718C94.4009 48.2464 93.5449 47.6044 91.6495 47.6044C89.754 47.6044 88.898 48.2464 87.7974 49.0718C86.6051 49.989 85.2294 50.9978 82.6002 50.9978C79.971 50.9978 78.5953 49.9584 77.403 49.0718C76.3024 48.2464 75.4464 47.6044 73.551 47.6044C71.6555 47.6044 70.7995 48.2464 69.6989 49.0718C68.5066 49.989 67.1309 50.9978 64.5017 50.9978C61.8725 50.9978 60.4968 49.9584 59.3045 49.0718C58.2039 48.2464 57.3479 47.6044 55.4524 47.6044C54.841 47.6044 54.3213 47.0846 54.3213 46.4732C54.3213 45.8618 54.841 45.342 55.4524 45.342C58.0816 45.342 59.4574 46.3815 60.6497 47.2681C61.7502 48.0935 62.6062 48.7355 64.5017 48.7355C66.3972 48.7355 67.2532 48.0935 68.3537 47.2681C69.546 46.3509 70.9218 45.342 73.551 45.342C76.1801 45.342 77.5559 46.3815 78.7482 47.2681C79.8488 48.0935 80.7048 48.7355 82.6002 48.7355C84.4957 48.7355 85.3517 48.0935 86.4523 47.2681C87.6446 46.3509 89.0203 45.342 91.6495 45.342C94.2786 45.342 95.6544 46.3815 96.8467 47.2681C97.9473 48.0935 98.8033 48.7355 100.699 48.7355C102.594 48.7355 103.45 48.0935 104.551 47.2681C105.743 46.3509 107.119 45.342 109.748 45.342C112.377 45.342 113.753 46.3815 114.945 47.2681C116.046 48.0935 116.902 48.7355 118.797 48.7355C120.693 48.7355 121.549 48.0935 122.649 47.2681C123.842 46.3509 125.217 45.342 127.846 45.342C130.476 45.342 131.851 46.3815 133.044 47.2681C134.144 48.0935 135 48.7355 136.896 48.7355C138.791 48.7355 139.647 48.0935 140.748 47.2681C141.94 46.3509 143.316 45.342 145.945 45.342C148.574 45.342 149.95 46.3815 151.142 47.2681C152.243 48.0935 153.099 48.7355 154.994 48.7355C156.89 48.7355 157.746 48.0935 158.846 47.2681C160.039 46.3509 161.414 45.342 164.044 45.342C164.655 45.342 165.175 45.8312 165.175 46.4732C165.175 47.0846 164.655 47.6044 164.044 47.6044C162.148 47.6044 161.292 48.2464 160.191 49.0718C158.999 49.989 157.654 50.9978 154.994 50.9978Z" fill="#C60B40"/>
<path d="M169.424 51.5789H165.602C164.96 51.5789 164.41 51.0592 164.41 50.3866V42.6825C164.41 42.0405 164.93 41.4902 165.602 41.4902H169.424C170.066 41.4902 170.616 42.01 170.616 42.6825V50.3866C170.616 51.0592 170.097 51.5789 169.424 51.5789Z" fill="#C60B40"/>
<path d="M173.245 44.8529H168.018C167.559 44.8529 167.223 44.4861 167.223 44.0581C167.223 43.5995 167.59 43.2632 168.018 43.2632H173.245C173.704 43.2632 174.071 43.63 174.071 44.0581C174.04 44.4861 173.673 44.8529 173.245 44.8529Z" fill="#C60B40"/>
<path d="M173.245 49.8671H168.018C167.559 49.8671 167.223 49.5002 167.223 49.0722C167.223 48.6136 167.59 48.2773 168.018 48.2773H173.245C173.704 48.2773 174.071 48.6442 174.071 49.0722C174.04 49.5002 173.673 49.8671 173.245 49.8671Z" fill="#C60B40"/>
<path d="M56.3387 12.875V15.9016H54.6572V7.5249H57.9896C58.9373 7.5249 59.7016 7.76947 60.2519 8.25862C60.8022 8.74777 61.0773 9.38978 61.0773 10.1846C61.0773 10.9795 60.8022 11.6215 60.2519 12.1107C59.7016 12.5998 58.9373 12.8444 57.9896 12.8444H56.3387V12.875ZM56.3387 11.5909H57.9896C58.4481 11.5909 58.815 11.4687 59.0596 11.1935C59.3041 10.9489 59.4264 10.6127 59.4264 10.2152C59.4264 9.81778 59.3041 9.4815 59.0596 9.20635C58.815 8.93121 58.4787 8.80892 57.9896 8.80892H56.3387V11.5909Z" fill="white"/>
<path d="M69.0566 12.4772C69.0566 13.5166 68.7203 14.3421 68.0783 15.0147C67.4363 15.6873 66.5803 16.0235 65.5408 16.0235C64.5014 16.0235 63.676 15.6873 63.034 15.0147C62.392 14.3421 62.0557 13.4861 62.0557 12.4772V10.9792C62.0557 9.97032 62.392 9.11431 63.0034 8.44173C63.6454 7.76915 64.4708 7.43286 65.5103 7.43286C66.5497 7.43286 67.4057 7.76915 68.0477 8.44173C68.6897 9.11431 69.026 9.97032 69.026 10.9792V12.4772H69.0566ZM67.3752 10.9792C67.3752 10.3372 67.2223 9.78689 66.886 9.35889C66.5497 8.93088 66.1217 8.71688 65.5408 8.71688C64.96 8.71688 64.532 8.93088 64.2263 9.32831C63.9205 9.75632 63.7677 10.276 63.7677 10.9486V12.4772C63.7677 13.1498 63.9205 13.6695 64.2568 14.0975C64.5626 14.5255 65.0211 14.7395 65.5714 14.7395C66.1523 14.7395 66.5803 14.5255 66.9166 14.0975C67.2529 13.6695 67.4057 13.1498 67.4057 12.4772V10.9792H67.3752Z" fill="white"/>
<path d="M76.9755 13.3029H77.0366L78.2289 7.55542H79.8492L77.8927 15.9321H76.3335L74.8049 10.3986H74.7743L73.2457 15.9321H71.6866L69.73 7.55542H71.3809L72.5732 13.2723L72.6037 13.3029L74.1629 7.55542H75.4163L76.9755 13.3029Z" fill="white"/>
<path d="M85.9325 12.2329H82.4778V14.6175H86.5133V15.9321H80.7964V7.55542H86.5133V8.83943H82.4778V10.9489H85.9325V12.2329Z" fill="white"/>
<path d="M89.2342 12.5693V15.9016H87.5527V7.5249H90.7016C91.6494 7.5249 92.4137 7.7389 92.9334 8.16691C93.4837 8.59491 93.7282 9.20635 93.7282 9.97065C93.7282 10.3987 93.606 10.7655 93.392 11.0712C93.1779 11.377 92.8417 11.6215 92.3831 11.8355C92.8722 11.9884 93.2391 12.233 93.4531 12.5693C93.6671 12.9055 93.7894 13.3335 93.7894 13.8227V14.4341C93.7894 14.6787 93.82 14.9233 93.8811 15.1679C93.9422 15.4124 94.0645 15.6264 94.2174 15.7487V15.871H92.4748C92.3219 15.7487 92.2302 15.5347 92.1691 15.2596C92.1385 14.9844 92.1079 14.7093 92.1079 14.4341V13.8533C92.1079 13.4253 91.9856 13.1195 91.7716 12.875C91.5576 12.6304 91.2214 12.5387 90.8239 12.5387H89.2342V12.5693ZM89.2342 11.2852H90.6711C91.1296 11.2852 91.4965 11.1935 91.7105 10.9795C91.9551 10.7655 92.0468 10.4904 92.0468 10.0929C92.0468 9.6955 91.9245 9.42035 91.7105 9.17578C91.4659 8.96178 91.1296 8.83949 90.6711 8.83949H89.2342V11.2852Z" fill="white"/>
<path d="M100.485 12.2329H96.9995V14.6175H101.066V15.9321H95.3486V7.55542H101.066V8.83943H96.9995V10.9489H100.485V12.2329Z" fill="white"/>
<path d="M102.104 15.9321V7.55542H104.978C105.987 7.55542 106.843 7.89171 107.516 8.53372C108.188 9.17572 108.494 10.0317 108.494 11.0406V12.4163C108.494 13.4558 108.158 14.2812 107.516 14.9232C106.843 15.5652 106.018 15.9015 104.978 15.9015H102.104V15.9321ZM103.755 8.83943V14.6175H104.856C105.467 14.6175 105.926 14.4035 106.262 14.0061C106.599 13.6086 106.782 13.0583 106.782 12.4163V11.01C106.782 10.368 106.599 9.8483 106.262 9.4203C105.926 9.02286 105.437 8.80887 104.856 8.80887H103.755V8.83943Z" fill="white"/>
<path d="M112.744 15.9321V7.55542H115.557C116.535 7.55542 117.299 7.73885 117.85 8.13629C118.4 8.53372 118.675 9.08401 118.675 9.84831C118.675 10.2457 118.583 10.582 118.369 10.8877C118.155 11.1935 117.88 11.4075 117.483 11.5603C117.972 11.652 118.369 11.8966 118.614 12.2635C118.859 12.6303 118.981 13.0278 118.981 13.4864C118.981 14.2812 118.706 14.8927 118.186 15.3207C117.666 15.7181 116.902 15.9321 115.954 15.9321H112.744ZM114.426 11.0712H115.618C116.076 11.0712 116.413 10.9795 116.657 10.796C116.902 10.6126 117.024 10.3375 117.024 10.0012C117.024 9.60374 116.902 9.32858 116.657 9.14515C116.413 8.96172 116.046 8.87001 115.557 8.87001H114.395V11.0712H114.426ZM114.426 12.2329V14.6481H115.985C116.443 14.6481 116.78 14.5564 116.994 14.3729C117.238 14.1895 117.33 13.8838 117.33 13.5169C117.33 13.1195 117.238 12.7832 117.024 12.5692C116.841 12.3552 116.504 12.2329 116.076 12.2329H114.426Z" fill="white"/>
<path d="M122.465 11.4075H122.496L124.3 7.55542H126.165L123.291 12.9666V15.9321H121.609V12.9055L118.797 7.55542H120.631L122.465 11.4075Z" fill="white"/>
</svg>