<svg width="1387" height="930" viewBox="0 0 1387 930" fill="none" xmlns="http://www.w3.org/2000/svg">
<path fill-rule="evenodd" clip-rule="evenodd" d="M792.903 927.129V887.683H670.801V904.619C671.079 904.78 671.541 904.999 672.237 905.23C673.963 905.801 675.133 907.445 675.133 909.318V910.413C675.133 912.785 673.243 914.719 670.922 914.719L670.419 914.686C665.717 914.103 663.533 911.438 662.229 909.851C662.113 909.702 661.976 909.541 661.847 909.388C661.747 909.739 661.646 910.235 661.59 910.9C661.393 913.128 659.603 914.81 657.422 914.81H581.865C579.684 914.81 577.89 913.128 577.693 910.904C577.637 910.231 577.532 909.727 577.432 909.375C577.315 909.528 577.174 909.698 577.054 909.851C575.75 911.438 573.57 914.099 568.876 914.686L568.361 914.719C566.04 914.719 564.15 912.781 564.15 910.404V909.322C564.15 907.45 565.316 905.809 567.054 905.226C567.746 904.999 568.204 904.776 568.482 904.615V887.683H461.999V904.619C462.273 904.78 462.74 905.003 463.431 905.23C465.161 905.796 466.332 907.445 466.332 909.318V910.413C466.332 912.785 464.441 914.719 462.12 914.719L461.617 914.686C456.911 914.103 454.727 911.438 453.423 909.846C453.307 909.702 453.174 909.541 453.041 909.388C452.945 909.735 452.844 910.231 452.784 910.904C452.591 913.128 450.797 914.81 448.621 914.81H373.059C370.879 914.81 369.089 913.128 368.892 910.904C368.831 910.223 368.731 909.722 368.63 909.371C368.513 909.524 368.373 909.698 368.252 909.846C366.949 911.433 364.769 914.099 360.074 914.686L359.559 914.719C357.234 914.719 355.344 912.781 355.344 910.404V909.322C355.344 907.45 356.51 905.809 358.248 905.226C358.94 904.999 359.403 904.776 359.676 904.615V887.683H252.643V914.81H111.619V887.683H52.6781C25.1203 887.683 2.70312 864.651 2.70312 836.338V54.122C2.70312 25.8089 25.1203 2.77734 52.6781 2.77734H1263.68C1285.14 2.77734 1304.33 17.1178 1311.07 37.9053H1370.34V294.909H1313.66V361.334H1367.64C1367.8 361.214 1368.97 359.958 1370.15 356.206C1370.93 353.742 1373.14 352.089 1375.65 352.089H1377.86C1379.51 352.089 1381.08 352.821 1382.18 354.102C1383.3 355.391 1383.81 357.107 1383.61 358.809C1382.56 367.661 1377.92 371.683 1374.84 374.344C1372.8 376.113 1371.98 376.931 1371.98 377.927C1371.98 379.737 1375.54 380.704 1378.6 380.985C1381.58 381.262 1383.83 383.8 1383.83 386.891V548.161C1383.83 551.252 1381.58 553.794 1378.6 554.079C1375.54 554.36 1371.98 555.327 1371.98 557.137C1371.98 558.133 1372.8 558.952 1374.84 560.716C1377.92 563.378 1382.56 567.395 1383.61 576.247C1383.81 577.945 1383.29 579.665 1382.18 580.958C1381.07 582.239 1379.5 582.975 1377.85 582.975H1375.66C1373.15 582.975 1370.93 581.314 1370.15 578.85C1368.97 575.102 1367.8 573.85 1367.48 573.705L1313.66 573.73V644.784H1367.64C1367.8 644.668 1368.97 643.411 1370.15 639.659C1370.93 637.196 1373.14 635.539 1375.65 635.539H1377.86C1379.51 635.539 1381.08 636.27 1382.18 637.551C1383.3 638.837 1383.81 640.556 1383.61 642.263C1382.56 651.111 1377.92 655.136 1374.84 657.793C1372.8 659.562 1371.98 660.38 1371.98 661.376C1371.98 663.191 1375.54 664.158 1378.6 664.439C1381.58 664.711 1383.83 667.249 1383.83 670.34V831.615C1383.83 834.71 1381.58 837.252 1378.59 837.528C1375.54 837.809 1371.98 838.776 1371.98 840.587C1371.98 841.583 1372.8 842.401 1374.84 844.165C1377.92 846.831 1382.56 850.848 1383.61 859.7C1383.81 861.399 1383.29 863.118 1382.18 864.407C1381.07 865.693 1379.5 866.428 1377.85 866.428H1375.66C1373.15 866.428 1370.93 864.767 1370.15 862.304C1368.97 858.551 1367.8 857.299 1367.48 857.155L1309.33 857.179C1301.31 875.768 1283.58 887.683 1263.68 887.683H888.312V927.129H792.903Z" fill="#000829"/>
<path fill-rule="evenodd" clip-rule="evenodd" d="M1263.68 0H52.6781C23.6319 0 0 24.2796 0 54.1218V836.338C0 866.184 23.6319 890.46 52.6781 890.46H108.912V917.587H255.35V890.46H356.973V902.746C354.366 903.817 352.641 906.404 352.641 909.321V910.404C352.641 914.318 355.742 917.496 359.559 917.496H359.889L360.408 917.442C363.558 917.05 365.798 915.876 367.419 914.603C368.666 916.417 370.726 917.587 373.063 917.587H448.621C450.95 917.587 453.009 916.421 454.256 914.603C455.877 915.88 458.126 917.054 461.287 917.446L461.613 917.488L462.12 917.5C465.933 917.5 469.035 914.322 469.035 910.412V909.317C469.035 906.404 467.313 903.821 464.702 902.75V890.46H565.775V902.75C563.168 903.817 561.447 906.404 561.447 909.321V910.404C561.447 914.318 564.548 917.496 568.361 917.496H568.695L569.21 917.442C572.364 917.05 574.604 915.876 576.225 914.599C577.472 916.421 579.532 917.587 581.865 917.587H657.422C659.751 917.587 661.811 916.421 663.058 914.603C664.683 915.88 666.927 917.054 670.089 917.446L670.411 917.488L670.922 917.5C674.735 917.5 677.836 914.322 677.836 910.412V909.317C677.836 906.404 676.115 903.821 673.508 902.75V890.46H790.196V929.911H891.019V890.46H1263.68C1284.07 890.46 1302.28 878.611 1311.06 859.961H1366.26C1366.6 860.551 1367.08 861.576 1367.58 863.159C1368.72 866.775 1371.97 869.205 1375.66 869.205H1377.85C1380.27 869.205 1382.59 868.131 1384.2 866.255C1385.83 864.37 1386.59 861.853 1386.3 859.361C1385.12 849.426 1379.98 844.984 1376.59 842.041C1376.21 841.715 1375.76 841.326 1375.38 840.975C1376.11 840.719 1377.24 840.446 1378.83 840.293C1383.22 839.892 1386.54 836.156 1386.54 831.614V670.34C1386.54 665.802 1383.23 662.07 1378.84 661.67C1377.24 661.525 1376.11 661.248 1375.38 660.992C1375.76 660.636 1376.21 660.248 1376.59 659.921C1379.99 656.979 1385.12 652.532 1386.3 642.585C1386.59 640.097 1385.83 637.588 1384.21 635.708C1382.6 633.832 1380.28 632.761 1377.86 632.761H1375.65C1371.96 632.761 1368.72 635.187 1367.58 638.803C1367.08 640.386 1366.6 641.411 1366.26 642.006H1316.36V576.507H1366.26C1366.6 577.098 1367.08 578.127 1367.58 579.71C1368.72 583.326 1371.97 585.756 1375.66 585.756H1377.85C1380.27 585.756 1382.59 584.682 1384.2 582.805C1385.83 580.917 1386.59 578.404 1386.3 575.908C1385.12 565.977 1379.98 561.53 1376.59 558.592C1376.21 558.261 1375.76 557.877 1375.38 557.526C1376.11 557.265 1377.24 556.992 1378.83 556.848C1383.23 556.439 1386.54 552.707 1386.54 548.161V386.891C1386.54 382.349 1383.23 378.621 1378.84 378.216C1377.24 378.072 1376.11 377.795 1375.38 377.538C1375.76 377.187 1376.21 376.799 1376.59 376.472C1379.99 373.53 1385.12 369.083 1386.3 359.135C1386.59 356.648 1385.83 354.139 1384.21 352.255C1382.6 350.382 1380.28 349.308 1377.86 349.308H1375.65C1371.96 349.308 1368.72 351.734 1367.58 355.346C1367.08 356.933 1366.6 357.962 1366.26 358.553H1316.36V297.686H1373.05V35.1279H1312.98C1305.35 14.2495 1285.64 0 1263.68 0ZM1263.68 5.55848C1285.25 5.55848 1303.4 20.4073 1309.08 40.6864H1367.64V292.128H1310.95V364.111H1367.64C1370.11 364.111 1371.86 359.797 1372.73 357.065C1373.14 355.755 1374.31 354.866 1375.65 354.866H1377.86C1379.71 354.866 1381.15 356.577 1380.92 358.466C1379.37 371.678 1369.27 372.12 1369.27 377.927C1369.27 382.246 1374.85 383.436 1378.36 383.754C1379.94 383.899 1381.13 385.262 1381.13 386.891V548.161C1381.13 549.793 1379.93 551.161 1378.35 551.31C1374.84 551.632 1369.27 552.823 1369.27 557.137C1369.27 562.939 1379.36 563.386 1380.92 576.581C1381.15 578.482 1379.7 580.193 1377.85 580.193H1375.66C1374.31 580.193 1373.14 579.305 1372.72 577.991C1371.86 575.259 1370.11 570.953 1367.64 570.953C1366.58 570.953 1343.32 570.953 1310.95 570.953V647.565H1367.64C1370.11 647.565 1371.86 643.25 1372.73 640.518C1373.14 639.204 1374.31 638.316 1375.65 638.316H1377.86C1379.71 638.316 1381.15 640.023 1380.92 641.919C1379.37 655.132 1369.27 655.57 1369.27 661.376C1369.27 665.695 1374.85 666.885 1378.36 667.207C1379.94 667.352 1381.13 668.716 1381.13 670.34V831.614C1381.13 833.247 1379.93 834.611 1378.35 834.759C1374.84 835.082 1369.27 836.272 1369.27 840.586C1369.27 846.389 1379.36 846.831 1380.92 860.035C1381.15 861.932 1379.7 863.647 1377.85 863.647H1375.66C1374.31 863.647 1373.14 862.758 1372.72 861.444C1371.86 858.708 1370.11 854.402 1367.64 854.402C1366.54 854.402 1341.66 854.402 1307.54 854.402C1300.56 872.272 1283.57 884.901 1263.68 884.901H885.608V924.348H795.61V884.901H668.094V905.358C668.094 906.581 670.117 907.445 671.4 907.875C672.012 908.078 672.426 908.652 672.426 909.317V910.412C672.426 911.264 671.734 911.937 670.922 911.937C670.861 911.937 670.801 911.933 670.741 911.925C664.55 911.156 664.345 906.16 661.622 906.16C659.599 906.16 659.044 908.925 658.895 910.656C658.826 911.437 658.187 912.028 657.422 912.028H581.865C581.096 912.028 580.457 911.433 580.388 910.656C580.24 908.921 579.68 906.16 577.657 906.16C574.942 906.16 574.733 911.152 568.546 911.925C568.486 911.933 568.422 911.937 568.361 911.937C567.549 911.937 566.857 911.26 566.857 910.404V909.321C566.857 908.656 567.271 908.078 567.891 907.871C569.17 907.445 571.189 906.577 571.189 905.358C571.189 904.895 571.189 896.75 571.189 884.901H459.292V905.358C459.292 906.581 461.316 907.445 462.595 907.875C463.21 908.078 463.624 908.652 463.624 909.317V910.412C463.624 911.264 462.929 911.937 462.12 911.937C462.06 911.937 461.999 911.933 461.939 911.925C455.744 911.156 455.543 906.16 452.82 906.16C450.797 906.16 450.242 908.925 450.089 910.656C450.02 911.437 449.381 912.028 448.621 912.028H373.063C372.295 912.028 371.655 911.433 371.587 910.656C371.434 908.921 370.879 906.16 368.855 906.16C366.136 906.16 365.927 911.152 359.744 911.925C359.684 911.933 359.62 911.937 359.559 911.937C358.743 911.937 358.051 911.26 358.051 910.404V909.321C358.051 908.656 358.469 908.078 359.085 907.871C360.364 907.445 362.383 906.577 362.383 905.358C362.383 904.895 362.383 896.75 362.383 884.901H249.935V912.028H114.322V884.901H52.6781C26.5723 884.901 5.41021 863.163 5.41021 836.338V54.1218C5.41021 27.3006 26.5723 5.55848 52.6781 5.55848H1263.68Z" fill="#EA25F9"/>
<path fill-rule="evenodd" clip-rule="evenodd" d="M1101.31 854.472H1367.64C1370.11 854.472 1371.86 858.779 1372.72 861.515C1373.14 862.829 1374.31 863.717 1375.66 863.717H1377.85C1379.71 863.717 1381.15 862.002 1380.92 860.105C1379.36 846.905 1369.27 846.463 1369.27 840.657C1369.27 836.342 1374.84 835.152 1378.35 834.83C1379.93 834.685 1381.13 833.317 1381.13 831.685V670.415C1381.13 668.786 1379.94 667.422 1378.36 667.278C1374.85 666.955 1369.27 665.769 1369.27 661.451C1369.27 655.644 1379.37 655.202 1380.93 641.99C1381.15 640.097 1379.71 638.39 1377.86 638.39H1375.65C1374.31 638.39 1373.14 639.279 1372.73 640.585C1371.86 643.321 1370.11 647.635 1367.64 647.635C1364.02 647.635 1101.31 647.635 1101.31 647.635V854.472ZM1037.73 292.203H1367.64V40.761H1037.73V292.203ZM996.081 61.7385C996.081 86.5843 976.476 106.727 952.297 106.727C928.11 106.727 908.508 86.5843 908.508 61.7385C908.508 36.8928 928.11 16.75 952.297 16.75C976.476 16.75 996.081 36.8928 996.081 61.7385ZM974.517 61.7385C974.517 74.3515 964.565 84.5717 952.297 84.5717C940.02 84.5717 930.069 74.3515 930.069 61.7385C930.069 49.1256 940.02 38.9054 952.297 38.9054C964.565 38.9054 974.517 49.1256 974.517 61.7385ZM103.808 61.7385C103.808 86.5843 84.2022 106.727 60.0192 106.727C35.8362 106.727 16.2307 86.5843 16.2307 61.7385C16.2307 36.8928 35.8362 16.75 60.0192 16.75C84.2022 16.75 103.808 36.8928 103.808 61.7385ZM82.2433 61.7385C82.2433 74.3515 72.2957 84.5717 60.0192 84.5717C47.7467 84.5717 37.7951 74.3515 37.7951 61.7385C37.7951 49.1256 47.7467 38.9054 60.0192 38.9054C72.2957 38.9054 82.2433 49.1256 82.2433 61.7385ZM103.808 828.87C103.808 853.716 84.2022 873.859 60.0192 873.859C35.8362 873.859 16.2307 853.716 16.2307 828.87C16.2307 804.02 35.8362 783.882 60.0192 783.882C84.2022 783.882 103.808 804.02 103.808 828.87ZM82.2433 828.87C82.2433 841.479 72.2957 851.699 60.0192 851.699C47.7467 851.699 37.7951 841.479 37.7951 828.87C37.7951 816.257 47.7467 806.033 60.0192 806.033C72.2957 806.033 82.2433 816.257 82.2433 828.87ZM996.081 828.87C996.081 853.716 976.476 873.859 952.297 873.859C928.11 873.859 908.508 853.716 908.508 828.87C908.508 804.02 928.11 783.882 952.297 783.882C976.476 783.882 996.081 804.02 996.081 828.87ZM974.517 828.87C974.517 841.479 964.565 851.699 952.297 851.699C940.02 851.699 930.069 841.479 930.069 828.87C930.069 816.257 940.02 806.033 952.297 806.033C964.565 806.033 974.517 816.257 974.517 828.87ZM889.639 89.0929L884.229 100.214H856.703L851.293 89.0929V32.5328L856.703 21.4158H884.229L889.639 32.5328V89.0929ZM867.383 83.5385H875.054V75.6575H867.383V83.5385ZM867.383 45.9723H875.054V38.0954H867.383V45.9723ZM851.293 89.0929L845.883 100.214H818.357L812.943 89.0929V32.5328L818.357 21.4158H845.883L851.293 32.5328V89.0929ZM829.033 83.5385H836.703V75.6575H829.033V83.5385ZM829.033 45.9723H836.703V38.0954H829.033V45.9723ZM990.643 184.905L985.229 196.026H957.703L952.297 184.905V128.349L957.703 117.228H985.229L990.643 128.349V184.905Z" stroke="white" stroke-width="1.5"/>
<path fill-rule="evenodd" clip-rule="evenodd" d="M968.386 179.347H976.053V171.466H968.386V179.347ZM968.386 141.789H976.053V133.908H968.386V141.789ZM952.297 184.905L946.882 196.027H919.357L913.942 184.905V128.35L919.357 117.228H946.882L952.297 128.35V184.905ZM930.032 179.347H937.707V171.466H930.032V179.347ZM930.032 141.789H937.707V133.908H930.032V141.789ZM812.943 89.0931L807.532 100.214H780.007L774.596 89.0931V32.533L780.007 21.416H807.532L812.943 32.533V89.0931ZM790.686 83.5387H798.357V75.6577H790.686V83.5387ZM790.686 45.9725H798.357V38.0956H790.686V45.9725ZM774.596 89.0931L769.182 100.214H741.657L736.25 89.0931V32.533L741.657 21.416H769.182L774.596 32.533V89.0931ZM752.34 83.5387H760.007V75.6577H752.34V83.5387ZM752.34 45.9725H760.007V38.0956H752.34V45.9725ZM736.25 89.0931L730.836 100.214H703.311L697.896 89.0931V32.533L703.311 21.416H730.836L736.25 32.533V89.0931ZM713.986 83.5387H721.661V75.6577H713.986V83.5387ZM713.986 45.9725H721.661V38.0956H713.986V45.9725ZM697.896 89.0931L692.49 100.214H664.96L659.55 89.0931V32.533L664.96 21.416H692.49L697.896 32.533V89.0931ZM675.64 83.5387H683.311V75.6577H675.64V83.5387ZM675.64 45.9725H683.311V38.0956H675.64V45.9725ZM659.55 89.0931L654.14 100.214H626.614L621.204 89.0931V32.533L626.614 21.416H654.14L659.55 32.533V89.0931Z" stroke="white" stroke-width="1.5"/>
<path fill-rule="evenodd" clip-rule="evenodd" d="M637.294 83.5387H644.961V75.6577H637.294V83.5387ZM637.294 45.9725H644.961V38.0956H637.294V45.9725ZM621.204 89.0931L615.79 100.214H588.264L582.854 89.0931V32.533L588.264 21.416H615.79L621.204 32.533V89.0931ZM598.944 83.5387H606.615V75.6577H598.944V83.5387ZM598.944 45.9725H606.615V38.0956H598.944V45.9725ZM582.854 89.0931L577.444 100.214H549.914L544.504 89.0931V32.533L549.914 21.416H577.444L582.854 32.533V89.0931ZM560.594 83.5387H568.265V75.6577H560.594V83.5387ZM560.594 45.9725H568.265V38.0956H560.594V45.9725ZM544.504 89.0931L539.094 100.214H511.568L506.158 89.0931V32.533L511.568 21.416H539.094L544.504 32.533V89.0931ZM522.248 83.5387H529.919V75.6577H522.248V83.5387ZM522.248 45.9725H529.919V38.0956H522.248V45.9725ZM506.158 89.0931L500.744 100.214H473.222L467.808 89.0931V32.533L473.222 21.416H500.744L506.158 32.533V89.0931ZM483.898 83.5387H491.568V75.6577H483.898V83.5387ZM483.898 45.9725H491.568V38.0956H483.898V45.9725ZM467.808 89.0931L462.398 100.214H434.872L429.462 89.0931V32.533L434.872 21.416H462.398L467.808 32.533V89.0931ZM445.552 83.5387H453.218V75.6577H445.552V83.5387ZM445.552 45.9725H453.218V38.0956H445.552V45.9725ZM429.462 89.0931L424.047 100.214H396.522L391.112 89.0931V32.533L396.522 21.416H424.047L429.462 32.533V89.0931Z" stroke="white" stroke-width="1.5"/>
<path fill-rule="evenodd" clip-rule="evenodd" d="M407.202 83.5387H414.872V75.6577H407.202V83.5387ZM407.202 45.9725H414.872V38.0956H407.202V45.9725ZM391.112 89.0931L385.702 100.214H358.176L352.762 89.0931V32.533L358.176 21.416H385.702L391.112 32.533V89.0931ZM368.856 83.5387H376.522V75.6577H368.856V83.5387ZM368.856 45.9725H376.522V38.0956H368.856V45.9725ZM352.762 89.0931L347.351 100.214H319.826L314.416 89.0931V32.533L319.826 21.416H347.351L352.762 32.533V89.0931ZM330.505 83.5387H338.176V75.6577H330.505V83.5387ZM330.505 45.9725H338.176V38.0956H330.505V45.9725ZM314.416 89.0931L309.001 100.214H281.48L276.065 89.0931V32.533L281.48 21.416H309.001L314.416 32.533V89.0931ZM292.155 83.5387H299.826V75.6577H292.155V83.5387ZM292.155 45.9725H299.826V38.0956H292.155V45.9725ZM276.065 89.0931L270.655 100.214H243.13L237.719 89.0931V32.533L243.13 21.416H270.655L276.065 32.533V89.0931ZM253.809 83.5387H261.48V75.6577H253.809V83.5387ZM253.809 45.9725H261.48V38.0956H253.809V45.9725ZM237.719 89.0931L232.305 100.214H204.779L199.369 89.0931V32.533L204.779 21.416H232.305L237.719 32.533V89.0931ZM215.459 83.5387H223.13V75.6577H215.459V83.5387ZM215.459 45.9725H223.13V38.0956H215.459V45.9725ZM199.369 89.0931L193.959 100.214H166.433L161.023 89.0931V32.533L166.433 21.416H193.959L199.369 32.533V89.0931Z" stroke="white" stroke-width="1.5"/>
<path fill-rule="evenodd" clip-rule="evenodd" d="M177.113 83.5387H184.784V75.6577H177.113V83.5387ZM177.113 45.9725H184.784V38.0956H177.113V45.9725ZM161.023 89.0931L155.609 100.214H128.083L122.673 89.0931V32.533L128.083 21.416H155.609L161.023 32.533V89.0931ZM138.763 83.5387H146.434V75.6577H138.763V83.5387ZM138.763 45.9725H146.434V38.0956H138.763V45.9725ZM860.641 571.023H983.008V445.303H860.641V571.023Z" stroke="white" stroke-width="1.5"/>
<path d="M859.639 534.61H854.21M872.035 440.698V446.281V440.698ZM878.166 440.698V446.281V440.698ZM884.298 440.698V446.281V440.698ZM890.429 440.698V446.281V440.698ZM896.556 440.698V446.281V440.698ZM902.688 440.698V446.281V440.698ZM908.819 440.698V446.281V440.698ZM914.951 440.698V446.281V440.698ZM921.078 440.698V446.281V440.698ZM927.21 440.698V446.281V440.698ZM933.341 440.698V446.281V440.698ZM939.473 440.698V446.281V440.698ZM945.604 440.698V446.281V440.698ZM951.731 440.698V446.281V440.698ZM957.863 440.698V446.281V440.698ZM963.99 440.698V446.281V440.698ZM970.126 440.698V446.281V440.698ZM872.035 572.541V578.123V572.541ZM878.166 572.541V578.123V572.541ZM884.298 572.541V578.123V572.541ZM890.429 572.541V578.123V572.541ZM896.556 572.541V578.123V572.541ZM902.688 572.541V578.123V572.541ZM908.819 572.541V578.123V572.541ZM914.951 572.541V578.123V572.541ZM921.078 572.541V578.123V572.541ZM927.21 572.541V578.123V572.541ZM933.341 572.541V578.123V572.541ZM939.473 572.541V578.123V572.541ZM945.604 572.541V578.123V572.541ZM951.731 572.541V578.123V572.541ZM957.863 572.541V578.123V572.541ZM963.99 572.541V578.123V572.541ZM970.126 572.541V578.123V572.541ZM987.951 459.018H982.514H987.951ZM987.951 465.314H982.514H987.951ZM987.951 471.615H982.514H987.951ZM987.951 477.915H982.514H987.951ZM987.951 484.211H982.514H987.951ZM987.951 490.516H982.514H987.951ZM987.951 496.812H982.514H987.951ZM987.951 503.112H982.514H987.951ZM987.951 509.408H982.514H987.951ZM987.951 515.713H982.514H987.951ZM987.951 522.009H982.514H987.951ZM987.951 528.309H982.514H987.951ZM987.951 534.61H982.514H987.951ZM987.951 540.906H982.514H987.951ZM987.951 547.211H982.514H987.951ZM987.951 553.507H982.514H987.951ZM987.951 559.807H982.514H987.951ZM859.639 459.018H854.21H859.639ZM859.639 465.314H854.21H859.639ZM859.639 471.615H854.21H859.639ZM859.639 477.915H854.21H859.639ZM859.639 484.211H854.21H859.639ZM859.639 490.516H854.21H859.639ZM859.639 496.812H854.21H859.639ZM859.639 503.112H854.21H859.639ZM859.639 509.408H854.21H859.639ZM859.639 515.713H854.21H859.639ZM859.639 522.009H854.21H859.639ZM859.639 528.309H854.21H859.639Z" stroke="white" stroke-width="1.5" stroke-linecap="round"/>
<path d="M860.025 558.882H854.21M860.025 539.286H854.21H860.025ZM860.025 545.822H854.21H860.025ZM860.025 552.35H854.21H860.025Z" stroke="white" stroke-width="1.5" stroke-linecap="round"/>
<path fill-rule="evenodd" clip-rule="evenodd" d="M860.024 333.149H950.154V240.537H860.024V333.149Z" stroke="white" stroke-width="1.5"/>
<path fill-rule="evenodd" clip-rule="evenodd" d="M877.523 238.72V241.486V238.72ZM885.243 238.72V241.486V238.72ZM892.967 238.72V241.486V238.72ZM900.692 238.72V241.486V238.72ZM908.411 238.72V241.486V238.72ZM916.132 238.72V241.486V238.72ZM923.852 238.72V241.486V238.72ZM931.572 238.72V241.486V238.72ZM939.292 238.72V241.486V238.72ZM877.523 335.175V337.94V335.175ZM885.243 335.175V337.94V335.175ZM892.967 335.175V337.94V335.175ZM900.692 335.175V337.94V335.175ZM908.411 335.175V337.94V335.175ZM916.132 335.175V337.94V335.175ZM923.852 335.175V337.94V335.175ZM931.572 335.175V337.94V335.175ZM939.292 335.175V337.94V335.175ZM957.18 256.912H954.461H957.18ZM957.18 264.769H954.461H957.18ZM957.18 272.622H954.461H957.18ZM957.18 280.475H954.461H957.18ZM957.18 288.332H954.461H957.18ZM957.18 296.185H954.461H957.18ZM957.18 304.038H954.461H957.18ZM957.18 311.895H954.461H957.18ZM957.18 319.748H954.461H957.18ZM862.354 256.912H859.643H862.354ZM862.354 264.769H859.643H862.354ZM862.354 272.622H859.643H862.354ZM862.354 280.475H859.643H862.354ZM862.354 288.332H859.643H862.354ZM862.354 296.185H859.643H862.354ZM862.354 304.038H859.643H862.354ZM862.354 311.895H859.643H862.354ZM862.354 319.748H859.643H862.354ZM1014.12 237.233L1003.23 248.311L977.104 221.74L987.991 210.662L1014.12 237.233ZM992.055 210.888L990.132 212.844L992.055 210.888ZM997.517 216.439L995.594 218.395L997.517 216.439ZM1002.97 221.991L1001.05 223.947L1002.97 221.991ZM1008.44 227.547L1006.51 229.503L1008.44 227.547ZM1013.89 233.103L1011.98 235.055L1013.89 233.103ZM979.241 223.918L977.318 225.874L979.241 223.918ZM984.703 229.474L982.78 231.426L984.703 229.474ZM990.161 235.026L988.242 236.982L990.161 235.026ZM995.623 240.578L993.7 242.534L995.623 240.578ZM1001.08 246.133L999.161 248.09L1001.08 246.133ZM1014.12 288.714L1003.23 299.793L977.104 273.218L987.991 262.139L1014.12 288.714ZM992.055 262.365L990.132 264.321L992.055 262.365ZM997.517 267.917L995.594 269.873L997.517 267.917ZM1002.97 273.473L1001.05 275.425L1002.97 273.473ZM1008.44 279.025L1006.51 280.981L1008.44 279.025ZM1013.89 284.58L1011.98 286.537L1013.89 284.58ZM979.241 275.4L977.318 277.352L979.241 275.4ZM984.703 280.952L982.78 282.908L984.703 280.952ZM990.161 286.504L988.242 288.46L990.161 286.504ZM995.623 292.059L993.7 294.011L995.623 292.059ZM1001.08 297.611L999.161 299.567L1001.08 297.611ZM618.71 488.498H774.557V262.365H618.71V488.498Z" stroke="white" stroke-width="1.5" stroke-linecap="round"/>
<path fill-rule="evenodd" clip-rule="evenodd" d="M551.088 488.499H361.311C352.87 488.499 346.022 481.462 346.022 472.784V277.778C346.022 269.1 352.87 262.064 361.311 262.064H551.088C559.529 262.064 566.377 269.1 566.377 277.778V472.784C566.377 481.462 559.529 488.499 551.088 488.499ZM537.417 472.187H374.982C367.75 472.187 361.892 466.167 361.892 458.74V291.822C361.892 284.395 367.75 278.371 374.982 278.371H537.417C544.649 278.371 550.507 284.395 550.507 291.822V458.74C550.507 466.167 544.649 472.187 537.417 472.187ZM527.374 460.205H385.025C378.69 460.205 373.557 454.926 373.557 448.416V302.142C373.557 295.633 378.69 290.358 385.025 290.358H527.374C533.709 290.358 538.843 295.633 538.843 302.142V448.416C538.843 454.926 533.709 460.205 527.374 460.205ZM107.007 319.054H274.984V115.062H107.007V319.054Z" stroke="white" stroke-width="1.5" stroke-linecap="round"/>
<path fill-rule="evenodd" clip-rule="evenodd" d="M958.952 383.971H977.552V353.274H958.952V383.971ZM910.768 737.696H940.606V718.561H910.768V737.696ZM1027.34 644.581H1057.17V625.441H1027.34V644.581ZM1027.34 616.661H1057.17V597.525H1027.34V616.661ZM929.227 628.641V603.897C929.227 600.377 931.999 597.525 935.424 597.525H968.844C972.265 597.525 975.037 600.377 975.037 603.897V628.641C975.037 632.157 972.265 635.013 968.844 635.013H935.424C931.999 635.013 929.227 632.157 929.227 628.641ZM910.768 772.361H940.606V753.221H910.768V772.361ZM1014.79 414.067H1080.99V306.157H1014.79V414.067ZM737.914 247.726H767.755V228.586H737.914V247.726ZM930.79 383.971H944.623V358.887H930.79V383.971ZM890.875 383.971H904.712V358.887H890.875V383.971ZM1049.49 689.219H1063.32V664.135H1049.49V689.219ZM1000.45 757.379H1014.28V732.295H1000.45V757.379ZM911.767 383.971H920.515V366.676H911.767V383.971ZM960.692 736.776H969.44V719.481H960.692V736.776ZM1032.25 849.985H1041V832.69H1032.25V849.985ZM833.093 639.158H841.841V621.859H833.093V639.158ZM833.093 668.894H841.841V651.603H833.093V668.894ZM882.933 639.158H891.68V621.859H882.933V639.158ZM882.933 668.894H891.68V651.603H882.933V668.894ZM1048.43 849.985H1057.17V832.69H1048.43V849.985ZM1064.6 849.985H1073.35V832.69H1064.6V849.985Z" stroke="white" stroke-width="1.5"/>
<path fill-rule="evenodd" clip-rule="evenodd" d="M961.09 769.322H969.8V752.075H961.09V769.322ZM1072.28 726.107H1080.99V708.864H1072.28V726.107ZM1072.28 760.664H1080.99V743.416H1072.28V760.664ZM874.987 375.249H883.69V358.005H874.987V375.249ZM444.266 538.289H452.977V521.05H444.266V538.289ZM793.278 422.898H811.799V392.297H793.278V422.898ZM968.617 339.134H985.356V330.161H968.617V339.134ZM828.991 477.128H838.492V472.235H828.991V477.128ZM828.991 486.651H838.492V481.757H828.991V486.651ZM1007.56 495.252H1017.06V490.358H1007.56V495.252ZM472.159 550.192H476.91V540.405H472.159V550.192ZM1007.56 504.778H1017.06V499.885H1007.56V504.778ZM1007.56 552.424H1017.06V547.531H1007.56V552.424ZM1007.56 561.951H1017.06V557.053H1007.56V561.951ZM1007.56 580.537H1017.06V575.644H1007.56V580.537ZM828.991 496.177H838.492V491.284H828.991V496.177ZM828.991 505.704H838.492V500.806H828.991V505.704ZM828.991 515.227H838.492V510.333H828.991V515.227ZM828.991 524.749H838.492V519.856H828.991V524.749ZM798.39 591.225H843.913V561.951H798.39V591.225Z" stroke="white" stroke-width="1.5"/>
<path d="M847.08 592.055H844.375M798.767 569.161H796.062H798.767ZM798.767 576.792H796.062H798.767ZM798.767 584.423H796.062H798.767ZM798.767 592.055H796.062H798.767ZM847.08 569.161H844.375H847.08ZM847.08 576.792H844.375H847.08ZM847.08 584.423H844.375H847.08Z" stroke="white" stroke-width="1.5" stroke-linecap="round"/>
<path fill-rule="evenodd" clip-rule="evenodd" d="M781.525 670.735H810.599V622.936H781.525V670.735Z" stroke="white" stroke-width="1.5"/>
<path fill-rule="evenodd" clip-rule="evenodd" d="M1005.39 694.635H1034.47V658.785H1005.39V694.635Z" stroke="white" stroke-width="1.5"/>
<path fill-rule="evenodd" clip-rule="evenodd" d="M1039.14 820.11H1060.64V774.451H1039.14V820.11ZM915.265 705.778H932.706V658.785H915.265V705.778Z" stroke="white" stroke-width="1.5"/>
<path d="M784.432 672.372V669.592M806.713 622.724V619.948V622.724ZM799.287 622.724V619.948V622.724ZM791.862 622.724V619.948V622.724ZM784.432 622.724V619.948V622.724ZM806.713 672.372V669.592V672.372ZM799.287 672.372V669.592V672.372ZM791.862 672.372V669.592V672.372Z" stroke="white" stroke-width="1.5" stroke-linecap="round"/>
<path fill-rule="evenodd" clip-rule="evenodd" d="M41.8697 274.207H87.5099V321.718H65.8467V579.189H87.5099V627.286H41.8697V556.941L25.6001 540.261V360.646L41.8697 343.966V274.207ZM76.3559 579.189H87.5099V321.718H76.3559V579.189ZM603.327 217.165H620.145V208.194H603.327V217.165ZM287.469 130.011H304.287V121.037H287.469V130.011ZM287.469 145.538H304.287V136.563H287.469V145.538ZM603.327 231.695H612.873V226.801H603.327V231.695ZM705.109 251.616H714.655V246.722H705.109V251.616ZM680.035 251.616H689.581V246.722H680.035V251.616ZM340.749 251.616H350.294V246.722H340.749V251.616ZM309.737 657.897H328.349V627.286H309.737V657.897ZM277.766 657.897H296.378V627.286H277.766V657.897ZM177.339 638.249H195.947V607.642H177.339V638.249ZM48.7951 763.099H67.4068V732.492H48.7951V763.099ZM78.2061 769.213H109.987V726.374H78.2061V769.213ZM78.2061 671.77H108.23V632.739H78.2061V671.77ZM48.7951 665.342H68.9305V639.167H48.7951V665.342ZM210.584 769.213H242.365V726.374H210.584V769.213ZM291.787 793.222H341.381V726.374H291.787V793.222ZM71.0469 695.222H95.4391V681.03H71.0469V695.222ZM71.0469 717.085H95.4391V702.894H71.0469V717.085Z" stroke="white" stroke-width="1.5"/>
<path fill-rule="evenodd" clip-rule="evenodd" d="M126.055 642.022H150.101V627.971H126.055V642.022ZM226.584 692.649H250.631V678.598H226.584V692.649ZM226.584 714.295H250.631V700.245H226.584V714.295ZM247.451 753.749H261.1V728.984H247.451V753.749ZM19.7854 778.285H33.4342V753.52H19.7854V778.285ZM19.7854 719.652H33.4342V694.887H19.7854V719.652ZM193.257 772.534H201.882V755.455H193.257V772.534ZM167.931 768.438H184.513V759.552H167.931V768.438ZM138.074 768.438H154.656V759.552H138.074V768.438ZM122.62 736.813H198.412V658.769H122.62V736.813ZM112.124 615.71H152.052V590.073H112.124V615.71Z" stroke="white" stroke-width="1.5"/>
<path d="M121.274 723.941H118.637M132.444 655.798V658.512V655.798ZM139.944 655.798V658.512V655.798ZM147.445 655.798V658.512V655.798ZM154.945 655.798V658.512V655.798ZM162.449 655.798V658.512V655.798ZM169.949 655.798V658.512V655.798ZM177.449 655.798V658.512V655.798ZM184.954 655.798V658.512V655.798ZM132.444 735.415V738.125V735.415ZM139.944 735.415V738.125V735.415ZM147.445 735.415V738.125V735.415ZM154.945 735.415V738.125V735.415ZM162.449 735.415V738.125V735.415ZM169.949 735.415V738.125V735.415ZM177.449 735.415V738.125V735.415ZM184.954 735.415V738.125V735.415ZM198.761 669.985H196.119H198.761ZM198.761 677.692H196.119H198.761ZM198.761 685.399H196.119H198.761ZM198.761 693.11H196.119H198.761ZM198.761 700.817H196.119H198.761ZM198.761 708.524H196.119H198.761ZM198.761 716.234H196.119H198.761ZM198.761 723.941H196.119H198.761ZM121.274 669.985H118.637H121.274ZM121.274 677.692H118.637H121.274ZM121.274 685.399H118.637H121.274ZM121.274 693.11H118.637H121.274ZM121.274 700.817H118.637H121.274ZM121.274 708.524H118.637H121.274ZM121.274 716.234H118.637H121.274Z" stroke="white" stroke-width="1.5" stroke-linecap="round"/>
<path fill-rule="evenodd" clip-rule="evenodd" d="M745.35 876.668C744.723 876.668 699.885 876.668 699.885 876.668V829.085H721.465V571.22H699.885V523.05H745.35V593.503L761.556 610.208V790.098L745.35 806.803V876.668ZM699.885 829.085H710.996V571.22H699.885V829.085ZM1033.14 584.966H1049.9V575.977H1033.14V584.966ZM1020.45 748.564H1064.72V726.269H1020.45V748.564ZM848.133 639.922H876.403V622.645H848.133V639.922ZM849.265 669.599H854.02V659.791H849.265V669.599ZM859.891 669.599H864.645V659.791H859.891V669.599ZM870.05 669.599H874.801V659.791H870.05V669.599ZM487.56 801.963H505.032V783.945H487.56V801.963ZM519.444 801.963H536.92V783.945H519.444V801.963ZM485.484 866.711H507.108V821.066H485.484V866.711ZM1314.8 781.051L1296.9 771.628C1295.82 771.057 1294.62 770.759 1293.4 770.759H1279.65C1277.95 770.759 1276.56 772.187 1276.56 773.951V777.764C1276.56 779.524 1277.95 780.952 1279.65 780.952H1290.37C1291.37 780.952 1292.36 781.151 1293.28 781.54L1312.29 789.514C1313.22 789.903 1314.2 790.102 1315.2 790.102H1340.7C1342.41 790.102 1343.79 791.53 1343.79 793.294V810.666C1343.79 812.429 1342.41 813.854 1340.7 813.854H1315.2C1314.2 813.854 1313.22 814.052 1312.29 814.442L1293.28 822.42C1292.36 822.805 1291.37 823.003 1290.37 823.003H1279.65C1277.95 823.003 1276.56 824.432 1276.56 826.195V830.009C1276.56 831.772 1277.95 833.196 1279.65 833.196H1293.4C1294.62 833.196 1295.82 832.898 1296.9 832.327L1314.8 822.908C1315.89 822.333 1317.09 822.035 1318.31 822.035H1352.51C1355.86 822.035 1358.57 819.236 1358.57 815.787V788.168C1358.57 784.719 1355.86 781.921 1352.51 781.921H1318.31C1317.09 781.921 1315.89 781.623 1314.8 781.051V781.051ZM1314.8 680.835L1296.9 671.412C1295.82 670.841 1294.62 670.542 1293.4 670.542H1279.65C1277.95 670.542 1276.56 671.971 1276.56 673.735V677.548C1276.56 679.307 1277.95 680.736 1279.65 680.736H1290.37C1291.37 680.736 1292.36 680.934 1293.28 681.323L1312.29 689.297C1313.22 689.687 1314.2 689.885 1315.2 689.885H1340.7C1342.41 689.885 1343.79 691.314 1343.79 693.077V710.449C1343.79 712.213 1342.41 713.637 1340.7 713.637H1315.2C1314.2 713.637 1313.22 713.836 1312.29 714.225L1293.28 722.203C1292.36 722.588 1291.37 722.787 1290.37 722.787H1279.65C1277.95 722.787 1276.56 724.215 1276.56 725.979V729.792C1276.56 731.552 1277.95 732.98 1279.65 732.98H1293.4C1294.62 732.98 1295.82 732.682 1296.9 732.111L1314.8 722.692C1315.89 722.116 1317.09 721.818 1318.31 721.818H1352.51C1355.86 721.818 1358.57 719.019 1358.57 715.571V687.952C1358.57 684.503 1355.86 681.704 1352.51 681.704H1318.31C1317.09 681.704 1315.89 681.406 1314.8 680.835Z" stroke="white" stroke-width="1.5"/>
<path fill-rule="evenodd" clip-rule="evenodd" d="M1101.11 571.514H1366.98C1369.45 571.514 1371.2 575.828 1372.06 578.565C1372.48 579.886 1373.65 580.776 1374.99 580.776H1377.18C1379.03 580.776 1380.47 579.057 1380.25 577.157C1378.69 563.934 1368.61 563.491 1368.61 557.674C1368.61 553.351 1374.18 552.159 1377.68 551.836C1379.26 551.691 1380.45 550.321 1380.45 548.685V387.124C1380.45 385.493 1379.26 384.127 1377.69 383.982C1374.19 383.659 1368.61 382.471 1368.61 378.144C1368.61 372.323 1378.7 371.885 1380.25 358.644C1380.47 356.752 1379.04 355.042 1377.19 355.042H1374.98C1373.64 355.042 1372.48 355.928 1372.07 357.241C1371.2 359.978 1369.45 364.304 1366.98 364.304C1363.37 364.304 1101.11 364.304 1101.11 364.304V571.514ZM1365.36 405.697V433.109C1365.36 434.724 1364.19 436.082 1362.63 436.272L1277.1 446.656C1275.25 446.883 1273.62 445.389 1273.62 443.468V440.864C1273.62 439.212 1274.84 437.825 1276.44 437.667L1343.67 430.931C1346.84 430.613 1349.25 427.868 1349.25 424.589V414.218C1349.25 410.939 1346.84 408.194 1343.67 407.875L1276.44 401.139C1274.84 400.982 1273.62 399.599 1273.62 397.943V395.339C1273.62 393.417 1275.25 391.923 1277.1 392.146L1362.63 402.534C1364.19 402.725 1365.36 404.083 1365.36 405.697V405.697ZM1365.36 502.486V529.897C1365.36 531.516 1364.19 532.874 1362.63 533.06L1277.1 543.448C1275.25 543.676 1273.62 542.181 1273.62 540.256V537.652C1273.62 536 1274.84 534.617 1276.44 534.456L1343.67 527.72C1346.84 527.405 1349.25 524.66 1349.25 521.381V511.006C1349.25 507.727 1346.84 504.986 1343.67 504.667L1276.44 497.931C1274.84 497.77 1273.62 496.387 1273.62 494.735V492.131C1273.62 490.21 1275.25 488.715 1277.1 488.939L1362.63 499.327C1364.19 499.517 1365.36 500.875 1365.36 502.486V502.486ZM1273.62 474.208V461.61C1273.62 460.542 1274.4 459.639 1275.43 459.511L1332.12 452.63C1333.35 452.481 1334.42 453.47 1334.42 454.745V456.472C1334.42 457.565 1333.62 458.484 1332.56 458.588L1288 463.055C1285.9 463.266 1284.3 465.083 1284.3 467.257V468.561C1284.3 470.735 1285.9 472.552 1288 472.763L1332.56 477.226C1333.62 477.334 1334.42 478.249 1334.42 479.346V481.073C1334.42 482.348 1333.35 483.333 1332.12 483.188L1275.43 476.303C1274.4 476.179 1273.62 475.276 1273.62 474.208V474.208Z" stroke="white" stroke-width="1.5"/>
<path d="M76.7339 559.476H72.1187M717.562 589.657H712.947H717.562ZM717.562 605.391H712.947H717.562ZM717.562 621.121H712.947H717.562ZM717.562 636.855H712.947H717.562ZM717.562 652.585H712.947H717.562ZM717.562 668.32H712.947H717.562ZM717.562 684.05H712.947H717.562ZM717.562 699.78H712.947H717.562ZM717.562 715.51H712.947H717.562ZM717.562 731.351H712.947H717.562ZM717.562 747.081H712.947H717.562ZM717.562 762.815H712.947H717.562ZM717.562 778.545H712.947H717.562ZM717.562 794.279H712.947H717.562ZM717.562 810.009H712.947H717.562ZM76.7339 339.124H72.1187H76.7339ZM76.7339 354.858H72.1187H76.7339ZM76.7339 370.588H72.1187H76.7339ZM76.7339 386.322H72.1187H76.7339ZM76.7339 402.052H72.1187H76.7339ZM76.7339 417.782H72.1187H76.7339ZM76.7339 433.516H72.1187H76.7339ZM76.7339 449.246H72.1187H76.7339ZM76.7339 464.98H72.1187H76.7339ZM76.7339 480.817H72.1187H76.7339ZM76.7339 496.548H72.1187H76.7339ZM76.7339 512.282H72.1187H76.7339ZM76.7339 528.012H72.1187H76.7339ZM76.7339 543.742H72.1187H76.7339Z" stroke="white" stroke-width="1.5" stroke-linecap="round"/>
<path fill-rule="evenodd" clip-rule="evenodd" d="M569.784 784.26V906.011C569.784 907.237 567.765 908.111 566.485 908.543C565.866 908.747 565.451 909.333 565.451 909.998V911.092C565.451 912.019 566.252 912.73 567.141 912.622C573.329 911.845 573.538 906.822 576.254 906.822C578.278 906.822 578.837 909.599 578.99 911.337C579.054 912.132 579.694 912.722 580.462 912.722H656.037C656.801 912.722 657.441 912.131 657.509 911.341C657.658 909.599 658.213 906.822 660.237 906.822C662.961 906.822 663.166 911.849 669.358 912.622C670.247 912.73 671.044 912.023 671.044 911.096V909.994C671.044 909.329 670.629 908.747 670.018 908.543C668.734 908.115 666.71 907.242 666.71 906.011C666.71 904.21 666.71 784.26 666.71 784.26H569.784ZM647.35 890.019H634.524C633.771 890.019 633.136 889.433 633.047 888.655L628.187 846.027C628.082 845.104 628.782 844.293 629.68 844.293H630.899C631.671 844.293 632.319 844.9 632.395 845.695L635.546 879.208C635.695 880.788 636.978 881.99 638.511 881.99H643.363C644.896 881.99 646.179 880.788 646.328 879.208L649.483 845.695C649.555 844.9 650.203 844.293 650.975 844.293H652.194C653.096 844.293 653.792 845.104 653.687 846.027L648.827 888.655C648.742 889.433 648.103 890.019 647.35 890.019V890.019ZM602.072 890.019H589.249C588.493 890.019 587.857 889.433 587.769 888.655L582.912 846.027C582.804 845.104 583.504 844.293 584.401 844.293H585.624C586.393 844.293 587.044 844.9 587.117 845.695L590.267 879.208C590.416 880.788 591.699 881.99 593.232 881.99H598.088C599.621 881.99 600.905 880.788 601.05 879.208L604.204 845.695C604.276 844.9 604.924 844.293 605.697 844.293H606.916C607.817 844.293 608.513 845.104 608.408 846.027L603.552 888.655C603.464 889.433 602.828 890.019 602.072 890.019V890.019ZM360.933 784.26V906.011C360.933 907.237 358.913 908.111 357.634 908.543C357.018 908.747 356.6 909.333 356.6 909.998V911.092C356.6 912.019 357.405 912.73 358.294 912.622C364.482 911.845 364.687 906.822 367.407 906.822C369.43 906.822 369.986 909.599 370.139 911.337C370.207 912.132 370.847 912.722 371.615 912.722H447.189C447.95 912.722 448.59 912.131 448.658 911.341C448.811 909.599 449.366 906.822 451.39 906.822C454.114 906.822 454.319 911.849 460.511 912.622C461.396 912.73 462.196 912.023 462.196 911.096V909.994C462.196 909.329 461.782 908.747 461.166 908.543C459.887 908.115 457.863 907.242 457.863 906.011C457.863 904.21 457.863 784.26 457.863 784.26H360.933ZM438.499 890.019H425.677C424.924 890.019 424.285 889.433 424.196 888.655L419.34 846.027C419.235 845.104 419.931 844.293 420.833 844.293H422.052C422.824 844.293 423.472 844.9 423.544 845.695L426.699 879.208C426.847 880.788 428.131 881.99 429.66 881.99H434.516C436.049 881.99 437.332 880.788 437.481 879.208L440.631 845.695C440.704 844.9 441.356 844.293 442.128 844.293H443.347C444.244 844.293 444.944 845.104 444.836 846.027L439.98 888.655C439.891 889.433 439.255 890.019 438.499 890.019V890.019ZM393.224 890.019H380.398C379.646 890.019 379.01 889.433 378.921 888.655L374.061 846.027C373.957 845.104 374.653 844.293 375.554 844.293H376.773C377.545 844.293 378.193 844.9 378.266 845.695L381.42 879.208C381.569 880.788 382.852 881.99 384.385 881.99H389.237C390.77 881.99 392.054 880.788 392.202 879.208L395.357 845.695C395.429 844.9 396.077 844.293 396.849 844.293H398.069C398.966 844.293 399.666 845.104 399.561 846.027L394.701 888.655C394.612 889.433 393.977 890.019 393.224 890.019V890.019ZM112.822 912.722H248.461V795.482H112.822V912.722ZM221.4 822.871V822.568C221.4 820.884 220.076 819.516 218.447 819.516H209.33C207.696 819.516 206.377 818.152 206.377 816.464V816.139C206.377 814.455 207.696 813.092 209.33 813.092H218.447C220.076 813.092 221.4 811.719 221.4 810.035V809.723C221.4 808.039 220.076 806.672 218.447 806.672H202.864C201.521 806.672 200.434 807.794 200.434 809.183V823.412C200.434 824.8 201.521 825.923 202.864 825.923H218.447C220.076 825.923 221.4 824.555 221.4 822.871V822.871Z" stroke="white" stroke-width="1.5"/>
<path fill-rule="evenodd" clip-rule="evenodd" d="M141.896 811.001V811.284C141.896 812.852 143.181 814.126 144.763 814.126H153.613C155.195 814.126 156.48 815.399 156.48 816.967V817.269C156.48 818.837 155.195 820.111 153.613 820.111H144.763C143.181 820.111 141.896 821.385 141.896 822.953V823.243C141.896 824.811 143.181 826.085 144.763 826.085H159.889C161.19 826.085 162.248 825.039 162.248 823.746V810.498C162.248 809.205 161.19 808.16 159.889 808.16H144.763C143.181 808.16 141.896 809.433 141.896 811.001V811.001Z" stroke="white" stroke-width="1.5"/>
<path fill-rule="evenodd" clip-rule="evenodd" d="M258.634 661.773H214.135L208.766 656.253V616.505L214.135 610.985H258.634L264.007 616.505V656.253L258.634 661.773Z" stroke="white" stroke-width="1.5"/>
<path fill-rule="evenodd" clip-rule="evenodd" d="M793.492 921.684H882.95V882.318H793.492V921.684ZM784.432 882.318H892.006V691.647H784.432V882.318ZM892.006 825.481H881.143C879.955 825.481 879.056 826.444 878.88 827.659C877.416 837.832 865.693 837.109 865.689 825.481L850.904 746.381V725.336H825.535V746.381L810.749 825.481C810.749 837.109 799.022 837.832 797.559 827.659C797.383 826.444 796.487 825.481 795.295 825.481H784.432H892.006ZM838.221 691.647H859.912V731.551C859.912 735.059 862.659 737.906 866.057 737.906H871.235C873.058 737.906 874.47 739.555 874.25 741.422L869.36 782.685C868.916 785.983 868.556 788.032 866.273 788.032C863.802 787.784 863.99 784.243 863.97 781.88C863.97 779.59 864.078 768.917 864.126 763.781C864.146 761.988 863.566 760.244 862.479 758.835L850.904 743.831V725.336H825.535V743.831L813.959 758.835C812.872 760.244 812.292 761.988 812.312 763.781C812.36 768.917 812.472 779.59 812.472 781.88C812.452 784.243 812.636 787.784 810.169 788.032C807.886 788.032 807.522 785.983 807.078 782.685L802.189 741.422C801.969 739.555 803.38 737.906 805.207 737.906H810.385C813.78 737.906 816.53 735.059 816.53 731.551V691.647H838.221ZM881.251 691.647V825.481V691.647ZM795.188 691.647V825.481V691.647Z" stroke="white" stroke-width="1.5"/>
</svg>
